<mxfile host="app.diagrams.net" agent="Mozilla/5.0 (Macintosh; Intel Mac OS X 10_15_7) AppleWebKit/537.36 (KHTML, like Gecko) Chrome/128.0.0.0 Safari/537.36" version="24.7.7">
  <diagram id="WI9T0HZ2pTsCkuznbFz-" name="Page-1">
    <mxGraphModel dx="1244" dy="803" grid="1" gridSize="10" guides="1" tooltips="1" connect="1" arrows="1" fold="1" page="1" pageScale="1" pageWidth="1169" pageHeight="827" math="0" shadow="0">
      <root>
        <mxCell id="0" />
        <mxCell id="1" parent="0" />
        <mxCell id="AcxdMaKK0mU5kZiv2lnr-49" style="edgeStyle=elbowEdgeStyle;rounded=0;orthogonalLoop=1;jettySize=auto;elbow=vertical;html=1;strokeColor=#808080;exitX=1.016;exitY=0.498;exitDx=0;exitDy=0;exitPerimeter=0;" parent="1" edge="1">
          <mxGeometry relative="1" as="geometry">
            <mxPoint x="259.29999999999995" y="472.9000000000001" as="sourcePoint" />
            <mxPoint x="395" y="473" as="targetPoint" />
          </mxGeometry>
        </mxCell>
        <mxCell id="HoT-Beroih_YoZNH5ODc-1" value="" style="shape=image;verticalLabelPosition=bottom;labelBackgroundColor=#ffffff;verticalAlign=top;aspect=fixed;imageAspect=0;image=data:image/svg+xml,PHN2ZyB4bWxuczpjYz0iaHR0cDovL2NyZWF0aXZlY29tbW9ucy5vcmcvbnMjIiB4bWxuczpkYz0iaHR0cDovL3B1cmwub3JnL2RjL2VsZW1lbnRzLzEuMS8iIHhtbG5zOmlua3NjYXBlPSJodHRwOi8vd3d3Lmlua3NjYXBlLm9yZy9uYW1lc3BhY2VzL2lua3NjYXBlIiB4bWxuczpyZGY9Imh0dHA6Ly93d3cudzMub3JnLzE5OTkvMDIvMjItcmRmLXN5bnRheC1ucyMiIHhtbG5zOnNvZGlwb2RpPSJodHRwOi8vc29kaXBvZGkuc291cmNlZm9yZ2UubmV0L0RURC9zb2RpcG9kaS0wLmR0ZCIgeG1sbnM6c3ZnPSJodHRwOi8vd3d3LnczLm9yZy8yMDAwL3N2ZyIgeG1sbnM9Imh0dHA6Ly93d3cudzMub3JnLzIwMDAvc3ZnIiB4bWxuczp4bGluaz0iaHR0cDovL3d3dy53My5vcmcvMTk5OS94bGluayIgdmVyc2lvbj0iMS4xIiBpZD0ic3ZnMTA4MzUiIGlua3NjYXBlOnZlcnNpb249IjAuOTIuMyAoMjQwNTU0NiwgMjAxOC0wMy0xMSkiIHNvZGlwb2RpOmRvY25hbWU9ImlwaG9uZS5zdmciIHg9IjBweCIgeT0iMHB4IiB2aWV3Qm94PSIwIDAgMjguMTYgNTEuNDciIHN0eWxlPSJlbmFibGUtYmFja2dyb3VuZDpuZXcgMCAwIDI4LjE2IDUxLjQ3OyIgeG1sOnNwYWNlPSJwcmVzZXJ2ZSI+JiN4YTs8c29kaXBvZGk6bmFtZWR2aWV3IGJvcmRlcmNvbG9yPSIjNjY2NjY2IiBib3JkZXJvcGFjaXR5PSIxIiBmaXQtbWFyZ2luLWJvdHRvbT0iMCIgZml0LW1hcmdpbi1sZWZ0PSIwIiBmaXQtbWFyZ2luLXJpZ2h0PSIwIiBmaXQtbWFyZ2luLXRvcD0iMCIgZ3JpZHRvbGVyYW5jZT0iMTAiIGd1aWRldG9sZXJhbmNlPSIxMCIgaWQ9Im5hbWVkdmlldzEwODM3IiBpbmtzY2FwZTpjdXJyZW50LWxheWVyPSJzdmcxMDgzNSIgaW5rc2NhcGU6Y3g9IjE4Ljc3MzEzNiIgaW5rc2NhcGU6Y3k9IjM0LjMxNTY3MiIgaW5rc2NhcGU6cGFnZW9wYWNpdHk9IjAiIGlua3NjYXBlOnBhZ2VzaGFkb3c9IjIiIGlua3NjYXBlOndpbmRvdy1oZWlnaHQ9IjEwMTciIGlua3NjYXBlOndpbmRvdy1tYXhpbWl6ZWQ9IjEiIGlua3NjYXBlOndpbmRvdy13aWR0aD0iMTkyMCIgaW5rc2NhcGU6d2luZG93LXg9Ii04IiBpbmtzY2FwZTp3aW5kb3cteT0iLTgiIGlua3NjYXBlOnpvb209IjEyLjYzNDQyMyIgb2JqZWN0dG9sZXJhbmNlPSIxMCIgcGFnZWNvbG9yPSIjZmZmZmZmIiBzaG93Z3JpZD0iZmFsc2UiPiYjeGE7CTwvc29kaXBvZGk6bmFtZWR2aWV3PiYjeGE7PGcgaWQ9ImcxMDgzMyI+JiN4YTsJPHRpdGxlIGlkPSJ0aXRsZTEwODA4Ij5QYWdlLTE8L3RpdGxlPiYjeGE7CTxnIGlkPSJncm91cDM0NzYtMSI+JiN4YTsJCTx0aXRsZSBpZD0idGl0bGUxMDgxMCI+aVBob25lPC90aXRsZT4mI3hhOwkJPGcgaWQ9InNoYXBlMzQ3Ny0yIj4mI3hhOwkJCTx0aXRsZSBpZD0idGl0bGUxMDgxMiI+U2hlZXQuMzQ3NzwvdGl0bGU+JiN4YTsJCQk8cGF0aCBpZD0icGF0aDEwODE0IiBpbmtzY2FwZTpjb25uZWN0b3ItY3VydmF0dXJlPSIwIiBzdHlsZT0iZmlsbDojM0Y1NzY1OyIgZD0iTTI2LjIxLDBDMS44NCwwLDEuODQsMCwxLjg0LDAgICAgIEMwLjkyLDAsMCwwLjgsMCwxLjk5YzAsNDQuMzgsMCw0Ny42OCwwLDQ3LjY4YzAsMC45MiwwLjkyLDEuOCwxLjg0LDEuOGMyNC4zNywwLDI0LjM3LDAsMjQuMzcsMGMwLjkyLDAsMS45NS0wLjg4LDEuOTUtMS44ICAgICBjMC00NC40MiwwLTQ3LjY4LDAtNDcuNjhDMjguMTYsMC44LDI3LjEzLDAsMjYuMjEsMHoiLz4mI3hhOwkJPC9nPiYjeGE7CQk8ZyBpZD0ic2hhcGUzNDc4LTQiIHRyYW5zZm9ybT0idHJhbnNsYXRlKDkuMTgyNTEsLTQ3Ljc5MDQpIj4mI3hhOwkJCTx0aXRsZSBpZD0idGl0bGUxMDgxNyI+U2hlZXQuMzQ3ODwvdGl0bGU+JiN4YTsJCQk8cGF0aCBpZD0icGF0aDEwODE5IiBpbmtzY2FwZTpjb25uZWN0b3ItY3VydmF0dXJlPSIwIiBzdHlsZT0iZmlsbDojRkZGRkZGOyIgZD0iTTkuMTgsNTEuMDhjMCwwLjItMC4zOCwwLjM5LTAuOCwwLjM5ICAgICBjLTcuNjUsMC03LjY1LDAtNy42NSwwQzAuNDIsNTEuNDcsMCw1MS4yOCwwLDUxLjA4YzAtMC4xNSwwLjQyLTAuMjMsMC43My0wLjIzYzcuNjUsMCw3LjY1LDAsNy42NSwwICAgICBDOC44LDUwLjg1LDkuMTgsNTAuOTMsOS4xOCw1MS4wOHoiLz4mI3hhOwkJPC9nPiYjeGE7CQk8ZyBpZD0ic2hhcGUzNDc5LTYiIHRyYW5zZm9ybT0idHJhbnNsYXRlKDExLjYzMTIsLTEuMjI1MzkpIj4mI3hhOwkJCTx0aXRsZSBpZD0idGl0bGUxMDgyMiI+U2hlZXQuMzQ3OTwvdGl0bGU+JiN4YTsJCQk8cGF0aCBpZD0icGF0aDEwODI0IiBpbmtzY2FwZTpjb25uZWN0b3ItY3VydmF0dXJlPSIwIiBzdHlsZT0iZmlsbDojRkZGRkZGOyIgZD0iTTAsNDkuMDJjMC0xLjM0LDEuMTEtMi40NiwyLjQ1LTIuNDYgICAgIGMxLjM4LDAsMi40NSwxLjEyLDIuNDUsMi40NmMwLDEuMzctMS4wNywyLjQ1LTIuNDUsMi40NUMxLjExLDUxLjQ3LDAsNTAuMzksMCw0OS4wMnoiLz4mI3hhOwkJPC9nPiYjeGE7CQk8ZyBpZD0ic2hhcGUzNDgwLTgiIHRyYW5zZm9ybT0idHJhbnNsYXRlKDIuNzQ4NTgsLTcuMzUyMzYpIj4mI3hhOwkJCTx0aXRsZSBpZD0idGl0bGUxMDgyNyI+U2hlZXQuMzQ4MDwvdGl0bGU+JiN4YTsJCQk8cGF0aCBpZD0icGF0aDEwODI5IiBpbmtzY2FwZTpjb25uZWN0b3ItY3VydmF0dXJlPSIwIiBzdHlsZT0iZmlsbDojRkZGRkZGOyIgZD0iTTAsMTIuODdoMjIuNjV2MzguNkgwVjEyLjg3ICAgICBDMCwxMi44NywwLDEyLjg3LDAsMTIuODd6Ii8+JiN4YTsJCTwvZz4mI3hhOwk8L2c+JiN4YTs8L2c+JiN4YTs8L3N2Zz4=;noLabel=0;labelBorderColor=none;textShadow=0;" vertex="1" parent="1">
          <mxGeometry x="146" y="447" width="28" height="51" as="geometry" />
        </mxCell>
        <mxCell id="HoT-Beroih_YoZNH5ODc-2" value="" style="shape=image;verticalLabelPosition=bottom;labelBackgroundColor=#ffffff;verticalAlign=top;aspect=fixed;imageAspect=0;image=data:image/svg+xml,PHN2ZyB4bWxuczpjYz0iaHR0cDovL2NyZWF0aXZlY29tbW9ucy5vcmcvbnMjIiB4bWxuczpkYz0iaHR0cDovL3B1cmwub3JnL2RjL2VsZW1lbnRzLzEuMS8iIHhtbG5zOmlua3NjYXBlPSJodHRwOi8vd3d3Lmlua3NjYXBlLm9yZy9uYW1lc3BhY2VzL2lua3NjYXBlIiB4bWxuczpyZGY9Imh0dHA6Ly93d3cudzMub3JnLzE5OTkvMDIvMjItcmRmLXN5bnRheC1ucyMiIHhtbG5zOnNvZGlwb2RpPSJodHRwOi8vc29kaXBvZGkuc291cmNlZm9yZ2UubmV0L0RURC9zb2RpcG9kaS0wLmR0ZCIgeG1sbnM6c3ZnPSJodHRwOi8vd3d3LnczLm9yZy8yMDAwL3N2ZyIgeG1sbnM9Imh0dHA6Ly93d3cudzMub3JnLzIwMDAvc3ZnIiB4bWxuczp4bGluaz0iaHR0cDovL3d3dy53My5vcmcvMTk5OS94bGluayIgdmVyc2lvbj0iMS4xIiBpZD0ic3ZnMTE3NzMiIGlua3NjYXBlOnZlcnNpb249IjAuOTIuMyAoMjQwNTU0NiwgMjAxOC0wMy0xMSkiIHNvZGlwb2RpOmRvY25hbWU9ImxhcHRvcF81LnN2ZyIgeD0iMHB4IiB5PSIwcHgiIHZpZXdCb3g9IjAgMCA1Ny41NCAzNy4zNyIgc3R5bGU9ImVuYWJsZS1iYWNrZ3JvdW5kOm5ldyAwIDAgNTcuNTQgMzcuMzc7IiB4bWw6c3BhY2U9InByZXNlcnZlIj4mI3hhOzxzb2RpcG9kaTpuYW1lZHZpZXcgYm9yZGVyY29sb3I9IiM2NjY2NjYiIGJvcmRlcm9wYWNpdHk9IjEiIGZpdC1tYXJnaW4tYm90dG9tPSIwIiBmaXQtbWFyZ2luLWxlZnQ9IjAiIGZpdC1tYXJnaW4tcmlnaHQ9IjAiIGZpdC1tYXJnaW4tdG9wPSIwIiBncmlkdG9sZXJhbmNlPSIxMCIgZ3VpZGV0b2xlcmFuY2U9IjEwIiBpZD0ibmFtZWR2aWV3MTE3NzUiIGlua3NjYXBlOmN1cnJlbnQtbGF5ZXI9InN2ZzExNzczIiBpbmtzY2FwZTpjeD0iMzguMzYyNDY0IiBpbmtzY2FwZTpjeT0iMjQuOTEwMzMzIiBpbmtzY2FwZTpwYWdlb3BhY2l0eT0iMCIgaW5rc2NhcGU6cGFnZXNoYWRvdz0iMiIgaW5rc2NhcGU6d2luZG93LWhlaWdodD0iMTAxNyIgaW5rc2NhcGU6d2luZG93LW1heGltaXplZD0iMSIgaW5rc2NhcGU6d2luZG93LXdpZHRoPSIxOTIwIiBpbmtzY2FwZTp3aW5kb3cteD0iLTgiIGlua3NjYXBlOndpbmRvdy15PSItOCIgaW5rc2NhcGU6em9vbT0iMTcuMzk4MjM1IiBvYmplY3R0b2xlcmFuY2U9IjEwIiBwYWdlY29sb3I9IiNmZmZmZmYiIHNob3dncmlkPSJmYWxzZSI+JiN4YTsJPC9zb2RpcG9kaTpuYW1lZHZpZXc+JiN4YTs8ZyBpZD0iZzExNzcxIj4mI3hhOwk8dGl0bGUgaWQ9InRpdGxlMTE3NjQiPlBhZ2UtMTwvdGl0bGU+JiN4YTsJPGcgaWQ9InNoYXBlMzY1MC0xIj4mI3hhOwkJPHRpdGxlIGlkPSJ0aXRsZTExNzY2Ij5MYXB0b3AgIzU8L3RpdGxlPiYjeGE7CQk8cGF0aCBpZD0icGF0aDExNzY4IiBpbmtzY2FwZTpjb25uZWN0b3ItY3VydmF0dXJlPSIwIiBzdHlsZT0iZmlsbDojM0Y1NzY1OyIgZD0iTTUyLjc2LDI4LjM4YzAtMjUuODUsMC0yNS44NSwwLTI1Ljg1ICAgIGMwLTEuMjctMS4xMS0yLjUzLTIuNDktMi41M0M3LjMxLDAsNy4zMSwwLDcuMzEsMEM1LjkzLDAsNC44MiwxLjI2LDQuODIsMi41M2MwLDI1Ljg1LDAsMjUuODUsMCwyNS44NUMwLDM0LjI3LDAsMzQuMjcsMCwzNC4yNyAgICBjMCwxLjczLDEuNDIsMy4xLDIuOTUsMy4xYzUxLjY1LDAsNTEuNjUsMCw1MS42NSwwYzEuNTcsMCwyLjk0LTEuMzcsMi45NC0zLjFMNTIuNzYsMjguMzh6IE0zMi43NSwzNS4wNGMtOC44NCwwLTguODQsMC04Ljg0LDAgICAgYy0wLjQ2LDAtMC45NS0wLjMxLTAuOTUtMC40NmMxLjExLTIuMDMsMS4xMS0yLjAzLDEuMTEtMi4wM2MwLTAuMTUsMC4zLTAuMzEsMC43Ni0wLjMxYzcsMCw3LDAsNywwYzAuNDYsMCwwLjc3LDAuMTYsMC43NywwLjMxICAgIGMxLjA3LDIuMDMsMS4wNywyLjAzLDEuMDcsMi4wM0MzMy42NywzNC43MywzMy4yMSwzNS4wNCwzMi43NSwzNS4wNHogTTQ4Ljg2LDI3LjcyYy00MC4xNywwLTQwLjE3LDAtNDAuMTcsMCAgICBjMC0yMi41NSwwLTIyLjU1LDAtMjIuNTVjMC0wLjgsMC40OS0xLjI2LDEuMS0xLjI2YzM4LDAsMzgsMCwzOCwwYzAuNjEsMCwxLjA3LDAuNDYsMS4wNywxLjI2VjI3LjcyeiIvPiYjeGE7CTwvZz4mI3hhOzwvZz4mI3hhOzwvc3ZnPg==;noLabel=0;labelBorderColor=none;textShadow=0;" vertex="1" parent="1">
          <mxGeometry x="174" y="410.5" width="58" height="37" as="geometry" />
        </mxCell>
        <mxCell id="HoT-Beroih_YoZNH5ODc-3" value="" style="shape=image;verticalLabelPosition=bottom;labelBackgroundColor=#ffffff;verticalAlign=top;aspect=fixed;imageAspect=0;image=data:image/svg+xml,PHN2ZyB4bWxuczpjYz0iaHR0cDovL2NyZWF0aXZlY29tbW9ucy5vcmcvbnMjIiB4bWxuczpkYz0iaHR0cDovL3B1cmwub3JnL2RjL2VsZW1lbnRzLzEuMS8iIHhtbG5zOmlua3NjYXBlPSJodHRwOi8vd3d3Lmlua3NjYXBlLm9yZy9uYW1lc3BhY2VzL2lua3NjYXBlIiB4bWxuczpyZGY9Imh0dHA6Ly93d3cudzMub3JnLzE5OTkvMDIvMjItcmRmLXN5bnRheC1ucyMiIHhtbG5zOnNvZGlwb2RpPSJodHRwOi8vc29kaXBvZGkuc291cmNlZm9yZ2UubmV0L0RURC9zb2RpcG9kaS0wLmR0ZCIgeG1sbnM6c3ZnPSJodHRwOi8vd3d3LnczLm9yZy8yMDAwL3N2ZyIgeG1sbnM9Imh0dHA6Ly93d3cudzMub3JnLzIwMDAvc3ZnIiB4bWxuczp4bGluaz0iaHR0cDovL3d3dy53My5vcmcvMTk5OS94bGluayIgdmVyc2lvbj0iMS4xIiBpZD0ic3ZnMzY3MTEiIGlua3NjYXBlOnZlcnNpb249IjAuOTIuMyAoMjQwNTU0NiwgMjAxOC0wMy0xMSkiIHNvZGlwb2RpOmRvY25hbWU9InRhYmxldF8zLnN2ZyIgeD0iMHB4IiB5PSIwcHgiIHZpZXdCb3g9IjAgMCA3Ny4wNyA1Ny41OSIgc3R5bGU9ImVuYWJsZS1iYWNrZ3JvdW5kOm5ldyAwIDAgNzcuMDcgNTcuNTk7IiB4bWw6c3BhY2U9InByZXNlcnZlIj4mI3hhOzxzb2RpcG9kaTpuYW1lZHZpZXcgYm9yZGVyY29sb3I9IiM2NjY2NjYiIGJvcmRlcm9wYWNpdHk9IjEiIGZpdC1tYXJnaW4tYm90dG9tPSIwIiBmaXQtbWFyZ2luLWxlZnQ9IjAiIGZpdC1tYXJnaW4tcmlnaHQ9IjAiIGZpdC1tYXJnaW4tdG9wPSIwIiBncmlkdG9sZXJhbmNlPSIxMCIgZ3VpZGV0b2xlcmFuY2U9IjEwIiBpZD0ibmFtZWR2aWV3MzY3MTMiIGlua3NjYXBlOmN1cnJlbnQtbGF5ZXI9InN2ZzM2NzExIiBpbmtzY2FwZTpjeD0iNTEuMzc4MjM5IiBpbmtzY2FwZTpjeT0iMzguMzkwOTI4IiBpbmtzY2FwZTpwYWdlb3BhY2l0eT0iMCIgaW5rc2NhcGU6cGFnZXNoYWRvdz0iMiIgaW5rc2NhcGU6d2luZG93LWhlaWdodD0iMTAxNyIgaW5rc2NhcGU6d2luZG93LW1heGltaXplZD0iMSIgaW5rc2NhcGU6d2luZG93LXdpZHRoPSIxOTIwIiBpbmtzY2FwZTp3aW5kb3cteD0iLTgiIGlua3NjYXBlOndpbmRvdy15PSItOCIgaW5rc2NhcGU6em9vbT0iMTEuMjkwMzMzIiBvYmplY3R0b2xlcmFuY2U9IjEwIiBwYWdlY29sb3I9IiNmZmZmZmYiIHNob3dncmlkPSJmYWxzZSI+JiN4YTsJPC9zb2RpcG9kaTpuYW1lZHZpZXc+JiN4YTs8ZyBpZD0iZzM2NzA5IiB0cmFuc2Zvcm09InRyYW5zbGF0ZSgwLDAuMDAxMDM3MzQpIj4mI3hhOwk8dGl0bGUgaWQ9InRpdGxlMzY1MjkiPlBhZ2UtMTwvdGl0bGU+JiN4YTsJPGcgaWQ9Imdyb3VwMzI1OS0xIj4mI3hhOwkJPHRpdGxlIGlkPSJ0aXRsZTM2NTMxIj5UYWJsZXQgIzM8L3RpdGxlPiYjeGE7CQk8ZyBpZD0ic2hhcGUzMjYwLTIiIHRyYW5zZm9ybT0idHJhbnNsYXRlKDAsLTMuMDg1MzcpIj4mI3hhOwkJCTx0aXRsZSBpZD0idGl0bGUzNjUzMyI+U2hlZXQuMzI2MDwvdGl0bGU+JiN4YTsJCQk8cGF0aCBpZD0icGF0aDM2NTM1IiBpbmtzY2FwZTpjb25uZWN0b3ItY3VydmF0dXJlPSIwIiBzdHlsZT0iZmlsbDojRTVCNUFDOyIgZD0iTTAsNTcuNTlDNS41Niw0Ni42LDUuNTYsNDYuNiw1LjU2LDQ2LjYgICAgIGMtMC41Mi0xLjMyLTAuNjgtMi43Ni0wLjY4LTQuMjRjMC01LjE3LDAtNS4xNywwLTUuMTdjMC01LjE4LDIuOTYtOS40Miw4LjMyLTkuNDJjNS4yLDAsOS40MSw0LjI0LDkuNDEsOS40MiAgICAgYzAsNS4xNywwLDUuMTcsMCw1LjE3YzAsMy43My0yLjA5LDYuOTctNS4zNyw4LjQ1Yy0xLjkyLDYuNzgtMS45Miw2Ljc4LTEuOTIsNi43OEgweiIvPiYjeGE7CQk8L2c+JiN4YTsJCTxnIGlkPSJzaGFwZTMyNjEtNCIgdHJhbnNmb3JtPSJ0cmFuc2xhdGUoOC43MzQzMSwtMTUuOTQxMSkiPiYjeGE7CQkJPHRpdGxlIGlkPSJ0aXRsZTM2NTM4Ij5TaGVldC4zMjYxPC90aXRsZT4mI3hhOwkJCTxwYXRoIGlkPSJwYXRoMzY1NDAiIGlua3NjYXBlOmNvbm5lY3Rvci1jdXJ2YXR1cmU9IjAiIHN0eWxlPSJmaWxsOiMzRjU3NjU7IiBkPSJNNjYuNzksNTYuNjNjMCwwLjQ4LTAuMzIsMC45Ni0wLjgsMC45NiAgICAgQzEsNTcuNTksMSw1Ny41OSwxLDU3LjU5Yy0wLjQ5LDAtMS0wLjQ4LTEtMC45NmMwLTM5LjY5LDAtMzkuNjksMC0zOS42OWMwLTAuNDgsMC41MS0xLDEtMWM2NC45OSwwLDY0Ljk5LDAsNjQuOTksMCAgICAgYzAuNDgsMCwwLjgsMC41MiwwLjgsMVY1Ni42M3oiLz4mI3hhOwkJPC9nPiYjeGE7CQk8ZyBpZD0ic2hhcGUzMjYyLTYiIHRyYW5zZm9ybT0idHJhbnNsYXRlKDEzLjg3MjEsLTIxLjU5NzYpIj4mI3hhOwkJCTx0aXRsZSBpZD0idGl0bGUzNjU0MyI+U2hlZXQuMzI2MjwvdGl0bGU+JiN4YTsJCQk8cGF0aCBpZD0icGF0aDM2NTQ1IiBpbmtzY2FwZTpjb25uZWN0b3ItY3VydmF0dXJlPSIwIiBzdHlsZT0iZmlsbDojNTlCNEQ5OyIgZD0iTTU2LjUyLDU2Ljc5YzAsMC40OC0wLjQ5LDAuOC0wLjgxLDAuOCAgICAgYy01NC44OCwwLTU0Ljg4LDAtNTQuODgsMGMtMC40OCwwLTAuODMtMC4zMi0wLjgzLTAuOGMwLTI5LjI1LDAtMjkuMjUsMC0yOS4yNWMwLTAuNDgsMC4zNS0wLjgsMC44My0wLjggICAgIGM1NC44OCwwLDU0Ljg4LDAsNTQuODgsMGMwLjMyLDAsMC44MSwwLjMyLDAuODEsMC44TDU2LjUyLDU2Ljc5eiIvPiYjeGE7CQk8L2c+JiN4YTsJCTxnIGlkPSJzaGFwZTMyNjMtOCIgdHJhbnNmb3JtPSJ0cmFuc2xhdGUoNS4zMzg1MywtMjkuMDMwNykiPiYjeGE7CQkJPHRpdGxlIGlkPSJ0aXRsZTM2NTQ4Ij5TaGVldC4zMjYzPC90aXRsZT4mI3hhOwkJCTxwYXRoIGlkPSJwYXRoMzY1NTAiIGlua3NjYXBlOmNvbm5lY3Rvci1jdXJ2YXR1cmU9IjAiIHN0eWxlPSJmaWxsOiNFNUI1QUM7IiBkPSJNNi43LDUwLjYzYzAuODEsMC44MywwLjgxLDEuOTksMCwyLjgzICAgICBjLTMuMzcsMy41My0zLjM3LDMuNTMtMy4zNywzLjUzYy0wLjgsMC44NC0yLjA5LDAuODQtMi43MywwYy0wLjgtMC42Ny0wLjgtMS45OSwwLTIuODZjNC44Mi01LjA0LDQuODItNS4wNCw0LjgyLTUuMDRMNi43LDUwLjYzICAgICB6Ii8+JiN4YTsJCTwvZz4mI3hhOwkJPGcgaWQ9InNoYXBlMzI2NC0xMCIgdHJhbnNmb3JtPSJ0cmFuc2xhdGUoNS4xMzc4MywtMjEuOTkyMikiPiYjeGE7CQkJPHRpdGxlIGlkPSJ0aXRsZTM2NTUzIj5TaGVldC4zMjY0PC90aXRsZT4mI3hhOwkJCTxwYXRoIGlkPSJwYXRoMzY1NTUiIGlua3NjYXBlOmNvbm5lY3Rvci1jdXJ2YXR1cmU9IjAiIHN0eWxlPSJmaWxsOiNFNUI1QUM7IiBkPSJNMCw1NS4xYzAsMS4yOCwwLjk2LDIuNDEsMi40MSwyLjQxbDAsMCAgICAgYzEuMjgsMCwyLjIxLDAuNDgsMi4yMS0wLjgxYzAtOS4yMiwwLTkuMjIsMC05LjIyYzAtMS4zMi0wLjkzLTAuOC0yLjIxLTAuOGwwLDBDMC45Niw0Ni42OCwwLDQ3LjY0LDAsNDkuMDlWNTUuMXoiLz4mI3hhOwkJPC9nPiYjeGE7CQk8ZyBpZD0ic2hhcGUzMjY1LTEyIiB0cmFuc2Zvcm09InRyYW5zbGF0ZSg5LjI0ODEsLTM1LjU4OSkiPiYjeGE7CQkJPHRpdGxlIGlkPSJ0aXRsZTM2NTU4Ij5TaGVldC4zMjY1PC90aXRsZT4mI3hhOwkJCTxwYXRoIGlkPSJwYXRoMzY1NjAiIGlua3NjYXBlOmNvbm5lY3Rvci1jdXJ2YXR1cmU9IjAiIHN0eWxlPSJmaWxsOiNFRkQ5Q0I7IiBkPSJNMS42NCw1NS42NGMwLjQyLDAuNTIsMC40MiwwLjUyLDAuNDIsMC41MiAgICAgYy0wLjcxLDAuODctMC43MSwwLjg3LTAuNzEsMC44N0MxLjAzLDU3LjU0LDAuNDUsNTcuNywwLDU3LjU0TDEuNjQsNTUuNjR6Ii8+JiN4YTsJCTwvZz4mI3hhOwkJPGcgaWQ9InNoYXBlMzI2Ni0xNCIgdHJhbnNmb3JtPSJ0cmFuc2xhdGUoOC4yMjA1MywtNC42MjgwNSkiPiYjeGE7CQkJPHRpdGxlIGlkPSJ0aXRsZTM2NTYzIj5TaGVldC4zMjY2PC90aXRsZT4mI3hhOwkJCTxwYXRoIGlkPSJwYXRoMzY1NjUiIGlua3NjYXBlOmNvbm5lY3Rvci1jdXJ2YXR1cmU9IjAiIHN0eWxlPSJmaWxsOiNFNUI1QUM7IiBkPSJNMCwzNy4wMmM0LjUsMS4zMiw3LjcxLDUuNCw3LjcxLDEwLjI5ICAgICBjMCw0LjkyLTMuMjEsOS4xNi03LjcxLDEwLjI4VjM3LjAyeiIvPiYjeGE7CQk8L2c+JiN4YTsJCTxnIGlkPSJzaGFwZTMyNjctMTYiIHRyYW5zZm9ybT0idHJhbnNsYXRlKDE1LjkyNzMsLTExLjgyNzIpIj4mI3hhOwkJCTx0aXRsZSBpZD0idGl0bGUzNjU2OCI+U2hlZXQuMzI2NzwvdGl0bGU+JiN4YTsJCQk8cGF0aCBpZD0icGF0aDM2NTcwIiBpbmtzY2FwZTpjb25uZWN0b3ItY3VydmF0dXJlPSIwIiBzdHlsZT0iZmlsbDojQ0M4NjdGOyIgZD0iTTQuMzcsNTcuNTlDMCw1My40OCwwLDUzLjQ4LDAsNTMuNDggICAgIGM2LjY4LDAsNi42OCwwLDYuNjgsMEM2LjM2LDU1LjA5LDUuNTIsNTYuNSw0LjM3LDU3LjU5eiIvPiYjeGE7CQk8L2c+JiN4YTsJCTxnIGlkPSJzaGFwZTMyNjgtMTgiIHRyYW5zZm9ybT0idHJhbnNsYXRlKDE1LjY3MDQsLTM0LjE5NjEpIj4mI3hhOwkJCTx0aXRsZSBpZD0idGl0bGUzNjU3MyI+U2hlZXQuMzI2ODwvdGl0bGU+JiN4YTsJCQk8cGF0aCBpZD0icGF0aDM2NTc1IiBpbmtzY2FwZTpjb25uZWN0b3ItY3VydmF0dXJlPSIwIiBzdHlsZT0iZmlsbDojRkZGRkZGOyIgZD0iTTAsNDkuODh2Ny43MWg1MS44OXYtNy43MUgweiIvPiYjeGE7CQk8L2c+JiN4YTsJCTxnIGlkPSJzaGFwZTMyNjktMjAiIHRyYW5zZm9ybT0idHJhbnNsYXRlKDE5LjAxLC00OC44NTE2KSI+JiN4YTsJCQk8dGl0bGUgaWQ9InRpdGxlMzY1NzgiPlNoZWV0LjMyNjk8L3RpdGxlPiYjeGE7CQkJJiN4YTsJCQkJPHBhdGggaWQ9InBhdGgzNjU4MCIgaW5rc2NhcGU6Y29ubmVjdG9yLWN1cnZhdHVyZT0iMCIgc3R5bGU9ImZpbGw6bm9uZTtzdHJva2U6I0ZGRkZGRjtzdHJva2Utd2lkdGg6MS4yMjQ5O3N0cm9rZS1saW5lY2FwOnJvdW5kO3N0cm9rZS1saW5lam9pbjpyb3VuZDtzdHJva2UtbWl0ZXJsaW1pdDozOyIgZD0iICAgICBNMCw1Ny41OWg0NS42NiIvPiYjeGE7CQk8L2c+JiN4YTsJCTxnIGlkPSJzaGFwZTMyNzAtMjMiIHRyYW5zZm9ybT0idHJhbnNsYXRlKDE1LjQxMzUsLTMwLjMzOTQpIj4mI3hhOwkJCTx0aXRsZSBpZD0idGl0bGUzNjU4MyI+U2hlZXQuMzI3MDwvdGl0bGU+JiN4YTsJCQkmI3hhOwkJCQk8cGF0aCBpZD0icGF0aDM2NTg1IiBpbmtzY2FwZTpjb25uZWN0b3ItY3VydmF0dXJlPSIwIiBzdHlsZT0iZmlsbDpub25lO3N0cm9rZTojRkZGRkZGO3N0cm9rZS13aWR0aDoxLjIyNDk7c3Ryb2tlLWxpbmVjYXA6cm91bmQ7c3Ryb2tlLWxpbmVqb2luOnJvdW5kO3N0cm9rZS1taXRlcmxpbWl0OjM7IiBkPSIgICAgIE0wLDU3LjU5aDUyLjM3Ii8+JiN4YTsJCTwvZz4mI3hhOwkJPGcgaWQ9InNoYXBlMzI3MS0yNiIgdHJhbnNmb3JtPSJ0cmFuc2xhdGUoMTUuNDEzNSwtMjcuNzY4MykiPiYjeGE7CQkJPHRpdGxlIGlkPSJ0aXRsZTM2NTg4Ij5TaGVldC4zMjcxPC90aXRsZT4mI3hhOwkJCSYjeGE7CQkJCTxwYXRoIGlkPSJwYXRoMzY1OTAiIGlua3NjYXBlOmNvbm5lY3Rvci1jdXJ2YXR1cmU9IjAiIHN0eWxlPSJmaWxsOm5vbmU7c3Ryb2tlOiNGRkZGRkY7c3Ryb2tlLXdpZHRoOjEuMjI0OTtzdHJva2UtbGluZWNhcDpyb3VuZDtzdHJva2UtbGluZWpvaW46cm91bmQ7c3Ryb2tlLW1pdGVybGltaXQ6MzsiIGQ9IiAgICAgTTAsNTcuNTloNTIuMzciLz4mI3hhOwkJPC9nPiYjeGE7CQk8ZyBpZD0ic2hhcGUzMjcyLTI5IiB0cmFuc2Zvcm09InRyYW5zbGF0ZSgxNS40MTM1LC0yNS4xOTcyKSI+JiN4YTsJCQk8dGl0bGUgaWQ9InRpdGxlMzY1OTMiPlNoZWV0LjMyNzI8L3RpdGxlPiYjeGE7CQkJJiN4YTsJCQkJPHBhdGggaWQ9InBhdGgzNjU5NSIgaW5rc2NhcGU6Y29ubmVjdG9yLWN1cnZhdHVyZT0iMCIgc3R5bGU9ImZpbGw6bm9uZTtzdHJva2U6I0ZGRkZGRjtzdHJva2Utd2lkdGg6MS4yMjQ5O3N0cm9rZS1saW5lY2FwOnJvdW5kO3N0cm9rZS1saW5lam9pbjpyb3VuZDtzdHJva2UtbWl0ZXJsaW1pdDozOyIgZD0iICAgICBNMCw1Ny41OWg1Mi4zNyIvPiYjeGE7CQk8L2c+JiN4YTsJCTxnIGlkPSJzaGFwZTMyNzMtMzIiIHRyYW5zZm9ybT0idHJhbnNsYXRlKDMzLjU5NjYsLTE4LjUxMjIpIj4mI3hhOwkJCTx0aXRsZSBpZD0idGl0bGUzNjU5OCI+U2hlZXQuMzI3MzwvdGl0bGU+JiN4YTsJCQk8cGF0aCBpZD0icGF0aDM2NjAwIiBpbmtzY2FwZTpjb25uZWN0b3ItY3VydmF0dXJlPSIwIiBzdHlsZT0iZmlsbDojRTVCNUFDOyIgZD0iTTEyLjEzLDU0Ljg5Yy04LjY3LTguODMtOC42Ny04LjgzLTguNjctOC44MyAgICAgYy0wLjgtMC44MS0yLjA2LTAuODEtMi44NiwwYy0wLjgsMC44LTAuOCwxLjkyLDAsMi43M2M4LjcsOC44LDguNyw4LjgsOC43LDguOEwxMi4xMyw1NC44OXoiLz4mI3hhOwkJPC9nPiYjeGE7CQk8ZyBpZD0ic2hhcGUzMjc0LTM0IiB0cmFuc2Zvcm09InRyYW5zbGF0ZSgzMy45MDk3LC0yNi45MTA4KSI+JiN4YTsJCQk8dGl0bGUgaWQ9InRpdGxlMzY2MDMiPlNoZWV0LjMyNzQ8L3RpdGxlPiYjeGE7CQkJPHBhdGggaWQ9InBhdGgzNjYwNSIgaW5rc2NhcGU6Y29ubmVjdG9yLWN1cnZhdHVyZT0iMCIgc3R5bGU9ImZpbGw6I0YyRDNDQzsiIGQ9Ik0xLDU1LjEzYy0wLjQ5LDAuMjktMC44MSwwLjc3LTEsMS4wOSAgICAgYzEsMC45MywxLDAuOTMsMSwwLjkzYzAuNjQsMC42MSwxLjQ3LDAuNjEsMi4xMSwwYzAuNDktMC40OCwwLjQ5LTEuNDEsMC0xLjg2Yy0wLjk2LTEuMTMtMC45Ni0xLjEzLTAuOTYtMS4xMyAgICAgQzEuNjQsNTQuNDksMS4zMiw1NC44MSwxLDU1LjEzeiIvPiYjeGE7CQk8L2c+JiN4YTsJCTxnIGlkPSJzaGFwZTMyNzUtMzYiIHRyYW5zZm9ybT0idHJhbnNsYXRlKDM1LjU2ODEsLTI2LjczOTgpIj4mI3hhOwkJCTx0aXRsZSBpZD0idGl0bGUzNjYwOCI+U2hlZXQuMzI3NTwvdGl0bGU+JiN4YTsJCQk8cGF0aCBpZD0icGF0aDM2NjEwIiBpbmtzY2FwZTpjb25uZWN0b3ItY3VydmF0dXJlPSIwIiBzdHlsZT0iZmlsbDojRTBBM0EwOyIgZD0iTTAuNDYsNTYuMThjLTAuMzgsMC4zOS0wLjU4LDAuOC0wLjM4LDEuNDEgICAgIGMwLjM4LDAsMC45My0wLjE5LDEuMzEtMC42MWMwLjM5LTAuNDEsMC41NS0wLjgsMC4zOS0xLjQ0QzEuMzksNTUuNTQsMC44NSw1NS43NiwwLjQ2LDU2LjE4eiIvPiYjeGE7CQk8L2c+JiN4YTsJCTxnIGlkPSJzaGFwZTMyNzYtMzgiIHRyYW5zZm9ybT0idHJhbnNsYXRlKDM3Ljc2MzEsLTI0Ljk0KSI+JiN4YTsJCQk8dGl0bGUgaWQ9InRpdGxlMzY2MTMiPlNoZWV0LjMyNzY8L3RpdGxlPiYjeGE7CQkJJiN4YTsJCQkJPHBhdGggaWQ9InBhdGgzNjYxNSIgaW5rc2NhcGU6Y29ubmVjdG9yLWN1cnZhdHVyZT0iMCIgc3R5bGU9ImZpbGw6bm9uZTtzdHJva2U6I0NDODY3RjtzdHJva2Utd2lkdGg6MC42MTI0O3N0cm9rZS1saW5lY2FwOnJvdW5kO3N0cm9rZS1saW5lam9pbjpyb3VuZDtzdHJva2UtbWl0ZXJsaW1pdDozOyIgZD0iICAgICBNMS41NCw1Ni4wNWMtMC4yOSwwLTAuNzcsMC4xNi0xLjA2LDAuNDhDMC4xNiw1Ni44MiwwLDU3LjE0LDAsNTcuNTkiLz4mI3hhOwkJPC9nPiYjeGE7CQk8ZyBpZD0ic2hhcGUzMjc3LTQxIiB0cmFuc2Zvcm09InRyYW5zbGF0ZSgzOC4yNzY5LC0yNC40MjU4KSI+JiN4YTsJCQk8dGl0bGUgaWQ9InRpdGxlMzY2MTgiPlNoZWV0LjMyNzc8L3RpdGxlPiYjeGE7CQkJJiN4YTsJCQkJPHBhdGggaWQ9InBhdGgzNjYyMCIgaW5rc2NhcGU6Y29ubmVjdG9yLWN1cnZhdHVyZT0iMCIgc3R5bGU9ImZpbGw6bm9uZTtzdHJva2U6I0NDODY3RjtzdHJva2Utd2lkdGg6MC42MTI0O3N0cm9rZS1saW5lY2FwOnJvdW5kO3N0cm9rZS1saW5lam9pbjpyb3VuZDtzdHJva2UtbWl0ZXJsaW1pdDozOyIgZD0iICAgICBNMCw1Ny41OWMwLjQ4LDAsMC43Ny0wLjEzLDEuMDktMC40NXMwLjQ1LTAuNzcsMC40NS0xLjA5Ii8+JiN4YTsJCTwvZz4mI3hhOwkJPGcgaWQ9InNoYXBlMzI3OC00NCIgdHJhbnNmb3JtPSJ0cmFuc2xhdGUoMzguMjc2OSwtMjUuNDU0MykiPiYjeGE7CQkJPHRpdGxlIGlkPSJ0aXRsZTM2NjIzIj5TaGVldC4zMjc4PC90aXRsZT4mI3hhOwkJCSYjeGE7CQkJCTxwYXRoIGlkPSJwYXRoMzY2MjUiIGlua3NjYXBlOmNvbm5lY3Rvci1jdXJ2YXR1cmU9IjAiIHN0eWxlPSJmaWxsOm5vbmU7c3Ryb2tlOiNDQzg2N0Y7c3Ryb2tlLXdpZHRoOjAuNjEyNDtzdHJva2UtbGluZWNhcDpyb3VuZDtzdHJva2UtbGluZWpvaW46cm91bmQ7c3Ryb2tlLW1pdGVybGltaXQ6MzsiIGQ9IiAgICAgTTAuNTEsNTcuMDhjLTAuMTksMC0wLjI5LDAuMTMtMC4zOCwwLjIyQzAsNTcuNCwwLDU3LjUsMCw1Ny41OSIvPiYjeGE7CQk8L2c+JiN4YTsJCTxnIGlkPSJzaGFwZTMyNzktNDciIHRyYW5zZm9ybT0idHJhbnNsYXRlKDM4LjI3NjksLTI0Ljk0KSI+JiN4YTsJCQk8dGl0bGUgaWQ9InRpdGxlMzY2MjgiPlNoZWV0LjMyNzk8L3RpdGxlPiYjeGE7CQkJJiN4YTsJCQkJPHBhdGggaWQ9InBhdGgzNjYzMCIgaW5rc2NhcGU6Y29ubmVjdG9yLWN1cnZhdHVyZT0iMCIgc3R5bGU9ImZpbGw6bm9uZTtzdHJva2U6I0NDODY3RjtzdHJva2Utd2lkdGg6MC42MTI0O3N0cm9rZS1saW5lY2FwOnJvdW5kO3N0cm9rZS1saW5lam9pbjpyb3VuZDtzdHJva2UtbWl0ZXJsaW1pdDozOyIgZD0iICAgICBNMCw1Ny41OWMwLjIyLTAuMTYsMC40Mi0wLjE2LDAuNjQtMC4zMmMwLjE5LTAuMTksMC4zOS0wLjM1LDAuMzktMC43Ii8+JiN4YTsJCTwvZz4mI3hhOwkJPGcgaWQ9InNoYXBlMzI4MC01MCIgdHJhbnNmb3JtPSJ0cmFuc2xhdGUoNDEuMzU5NiwtMjEuODU0NykiPiYjeGE7CQkJPHRpdGxlIGlkPSJ0aXRsZTM2NjMzIj5TaGVldC4zMjgwPC90aXRsZT4mI3hhOwkJCSYjeGE7CQkJCTxwYXRoIGlkPSJwYXRoMzY2MzUiIGlua3NjYXBlOmNvbm5lY3Rvci1jdXJ2YXR1cmU9IjAiIHN0eWxlPSJmaWxsOm5vbmU7c3Ryb2tlOiNDQzg2N0Y7c3Ryb2tlLXdpZHRoOjAuNjEyNDtzdHJva2UtbGluZWNhcDpyb3VuZDtzdHJva2UtbGluZWpvaW46cm91bmQ7c3Ryb2tlLW1pdGVybGltaXQ6MzsiIGQ9IiAgICAgTTEuNTQsNTYuMDVjLTAuNDUsMC4xNi0wLjc3LDAuMzItMS4wNiwwLjY0QzAuMTYsNTYuOTgsMCw1Ny4zLDAsNTcuNTkiLz4mI3hhOwkJPC9nPiYjeGE7CQk8ZyBpZD0ic2hhcGUzMjgxLTUzIiB0cmFuc2Zvcm09InRyYW5zbGF0ZSg0MS44NzMzLC0yMC44MjYyKSI+JiN4YTsJCQk8dGl0bGUgaWQ9InRpdGxlMzY2MzgiPlNoZWV0LjMyODE8L3RpdGxlPiYjeGE7CQkJJiN4YTsJCQkJPHBhdGggaWQ9InBhdGgzNjY0MCIgaW5rc2NhcGU6Y29ubmVjdG9yLWN1cnZhdHVyZT0iMCIgc3R5bGU9ImZpbGw6bm9uZTtzdHJva2U6I0NDODY3RjtzdHJva2Utd2lkdGg6MC42MTI0O3N0cm9rZS1saW5lY2FwOnJvdW5kO3N0cm9rZS1saW5lam9pbjpyb3VuZDtzdHJva2UtbWl0ZXJsaW1pdDozOyIgZD0iICAgICBNMCw1Ny41OWMwLjQ4LDAsMC43Ny0wLjEzLDEuMDktMC40NXMwLjQ1LTAuNzcsMC40NS0xLjA5Ii8+JiN4YTsJCTwvZz4mI3hhOwkJPGcgaWQ9InNoYXBlMzI4Mi01NiIgdHJhbnNmb3JtPSJ0cmFuc2xhdGUoNDEuMzU5NiwtMjEuODU0NykiPiYjeGE7CQkJPHRpdGxlIGlkPSJ0aXRsZTM2NjQzIj5TaGVldC4zMjgyPC90aXRsZT4mI3hhOwkJCSYjeGE7CQkJCTxwYXRoIGlkPSJwYXRoMzY2NDUiIGlua3NjYXBlOmNvbm5lY3Rvci1jdXJ2YXR1cmU9IjAiIHN0eWxlPSJmaWxsOm5vbmU7c3Ryb2tlOiNDQzg2N0Y7c3Ryb2tlLXdpZHRoOjAuNjEyNDtzdHJva2UtbGluZWNhcDpyb3VuZDtzdHJva2UtbGluZWpvaW46cm91bmQ7c3Ryb2tlLW1pdGVybGltaXQ6MzsiIGQ9IiAgICAgTTEuMDMsNTcuMDhjLTAuMzIsMC0wLjUyLDAuMTMtMC42OCwwLjIyQzAuMTksNTcuNCwwLjE5LDU3LjUsMCw1Ny41OSIvPiYjeGE7CQk8L2c+JiN4YTsJCTxnIGlkPSJzaGFwZTMyODMtNTkiIHRyYW5zZm9ybT0idHJhbnNsYXRlKDQxLjg3MzMsLTIxLjM0MDUpIj4mI3hhOwkJCTx0aXRsZSBpZD0idGl0bGUzNjY0OCI+U2hlZXQuMzI4MzwvdGl0bGU+JiN4YTsJCQkmI3hhOwkJCQk8cGF0aCBpZD0icGF0aDM2NjUwIiBpbmtzY2FwZTpjb25uZWN0b3ItY3VydmF0dXJlPSIwIiBzdHlsZT0iZmlsbDpub25lO3N0cm9rZTojQ0M4NjdGO3N0cm9rZS13aWR0aDowLjYxMjQ7c3Ryb2tlLWxpbmVjYXA6cm91bmQ7c3Ryb2tlLWxpbmVqb2luOnJvdW5kO3N0cm9rZS1taXRlcmxpbWl0OjM7IiBkPSIgICAgIE0wLDU3LjU5YzAuMjIsMCwwLjQyLDAsMC42NC0wLjE5YzAuMTktMC4xOSwwLjM5LTAuNDIsMC4zOS0wLjgzIi8+JiN4YTsJCTwvZz4mI3hhOwkJPGcgaWQ9InNoYXBlMzI4NC02MiIgdHJhbnNmb3JtPSJ0cmFuc2xhdGUoNDQuMzg2MSwtMjEuMDgzMykiPiYjeGE7CQkJPHRpdGxlIGlkPSJ0aXRsZTM2NjUzIj5TaGVldC4zMjg0PC90aXRsZT4mI3hhOwkJCTxwYXRoIGlkPSJwYXRoMzY2NTUiIGlua3NjYXBlOmNvbm5lY3Rvci1jdXJ2YXR1cmU9IjAiIHN0eWxlPSJmaWxsOiNDQzg2N0Y7IiBkPSJNMTIuMTMsNTAuODhjLTEuMDktMS4xNi0xLjA5LTEuMTYtMS4wOS0xLjE2ICAgICBjLTAuOC0wLjg3LTIuMDktMC44Ny0yLjczLDBjLTEuNDUsMS41MS0xLjQ1LDEuNTEtMS40NSwxLjUxYy0wLjgtMC42Ny0xLjkyLTAuNjctMi43MywwLjE2Yy0xLjQ0LDEuNjctMS40NCwxLjY3LTEuNDQsMS42NyAgICAgYy0wLjgtMC4zMi0xLjYxLTAuMTYtMi4wOSwwLjUyYy0wLjgsMC42Ny0wLjgsMi4wMiwwLDIuODZjMS4xMywxLjE1LDEuMTMsMS4xNSwxLjEzLDEuMTVjMi4yNC0yLjM0LDIuMjQtMi4zNCwyLjI0LTIuMzQgICAgIGMwLjE2LDAuMTYsMC4xNiwwLjE2LDAuMTYsMC4xNmMwLjY1LTAuNDgsMC42NS0wLjQ4LDAuNjUtMC40OGMwLjQ4LDAuNDgsMC40OCwwLjQ4LDAuNDgsMC40OGMyLjI1LTIuMzUsMi4yNS0yLjM1LDIuMjUtMi4zNSAgICAgYzEuNiwxLjcxLDEuNiwxLjcxLDEuNiwxLjcxYzEuOTMtMi4xOSwxLjkzLTIuMTksMS45My0yLjE5Yy0wLjMyLTAuMTktMC4zMi0wLjE5LTAuMzItMC4xOUwxMi4xMyw1MC44OHoiLz4mI3hhOwkJPC9nPiYjeGE7CQk8ZyBpZD0ic2hhcGUzMjg1LTY0IiB0cmFuc2Zvcm09InRyYW5zbGF0ZSg0Mi42NDQsLTYuMTcwNzMpIj4mI3hhOwkJCTx0aXRsZSBpZD0idGl0bGUzNjY1OCI+U2hlZXQuMzI4NTwvdGl0bGU+JiN4YTsJCQk8cGF0aCBpZD0icGF0aDM2NjYwIiBpbmtzY2FwZTpjb25uZWN0b3ItY3VydmF0dXJlPSIwIiBzdHlsZT0iZmlsbDojRTVCNUFDOyIgZD0iTTEyLjY1LDU3LjU5bDguOTMtNS44OEwxMy43NCwzNmwtMy4wMSwyLjU3ICAgICBMNyw0MC41M2wtMy45NSwxLjY0TDAsNDQuNzFMMTIuNjUsNTcuNTl6Ii8+JiN4YTsJCTwvZz4mI3hhOwkJPGcgaWQ9InNoYXBlMzI4Ni02NiIgdHJhbnNmb3JtPSJ0cmFuc2xhdGUoNDUuNDEzNiwtMjAuMDU0OSkiPiYjeGE7CQkJPHRpdGxlIGlkPSJ0aXRsZTM2NjYzIj5TaGVldC4zMjg2PC90aXRsZT4mI3hhOwkJCTxwYXRoIGlkPSJwYXRoMzY2NjUiIGlua3NjYXBlOmNvbm5lY3Rvci1jdXJ2YXR1cmU9IjAiIHN0eWxlPSJmaWxsOiNFNUI1QUM7IiBkPSJNNC40Miw1NC42Yy0xLjA5LTEuMjUtMS4wOS0xLjI1LTEuMDktMS4yNSAgICAgYy0wLjgtMC45LTIuMDktMC45LTIuNzMsMGMtMC44LDAuOS0wLjgsMi4zMiwwLDMuMThjMC45NywxLjA2LDAuOTcsMS4wNiwwLjk3LDEuMDZMNC40Miw1NC42eiIvPiYjeGE7CQk8L2c+JiN4YTsJCTxnIGlkPSJzaGFwZTMyODctNjgiIHRyYW5zZm9ybT0idHJhbnNsYXRlKDQ5LjAxMDEsLTIyLjExMTgpIj4mI3hhOwkJCTx0aXRsZSBpZD0idGl0bGUzNjY2OCI+U2hlZXQuMzI4NzwvdGl0bGU+JiN4YTsJCQk8cGF0aCBpZD0icGF0aDM2NjcwIiBpbmtzY2FwZTpjb25uZWN0b3ItY3VydmF0dXJlPSIwIiBzdHlsZT0iZmlsbDojRTVCNUFDOyIgZD0iTTQuNDIsNTQuNzNjLTEuMDktMS4xMi0xLjA5LTEuMTItMS4wOS0xLjEyICAgICBjLTAuNjQtMC42NC0xLjkzLTAuNjQtMi43MywwYy0wLjgsMC44LTAuOCwyLjA5LDAsMi44OWMxLjEzLDEuMDksMS4xMywxLjA5LDEuMTMsMS4wOUw0LjQyLDU0LjczeiIvPiYjeGE7CQk8L2c+JiN4YTsJCTxnIGlkPSJzaGFwZTMyODgtNzAiIHRyYW5zZm9ybT0idHJhbnNsYXRlKDQ0Ljk5ODEsLTcuMTk5MTkpIj4mI3hhOwkJCTx0aXRsZSBpZD0idGl0bGUzNjY3MyI+U2hlZXQuMzI4ODwvdGl0bGU+JiN4YTsJCQk8cGF0aCBpZD0icGF0aDM2Njc1IiBpbmtzY2FwZTpjb25uZWN0b3ItY3VydmF0dXJlPSIwIiBzdHlsZT0iZmlsbDojRTVCNUFDOyIgZD0iTTEyLjAzLDU3LjU5YzAsMC03LjUxLTAuNDgtMTAuNTktMy43MiAgICAgYy0zLjc5LTQuMDksMS4xMi02LjU2LDEuMTItNi41NkwxMi4wMyw1Ny41OXoiLz4mI3hhOwkJPC9nPiYjeGE7CQk8ZyBpZD0ic2hhcGUzMjg5LTcyIiB0cmFuc2Zvcm09InRyYW5zbGF0ZSg0MS44NzEyLC0xMC41MjExKSI+JiN4YTsJCQk8dGl0bGUgaWQ9InRpdGxlMzY2NzgiPlNoZWV0LjMyODk8L3RpdGxlPiYjeGE7CQkJPHBhdGggaWQ9InBhdGgzNjY4MCIgaW5rc2NhcGU6Y29ubmVjdG9yLWN1cnZhdHVyZT0iMCIgc3R5bGU9ImZpbGw6I0U1QjVBQzsiIGQ9Ik03LjMyLDU0Ljc4YzAuNjUsMC42NCwwLjY1LDEuNzYtMC4xOSwyLjQxbDAsMCAgICAgYy0wLjY3LDAuNjQtMS44MywwLjQ4LTIuNS0wLjE2Yy00LjIxLTQuMzQtNC4yMS00LjM0LTQuMjEtNC4zNGMtMC42Ny0wLjY1LTAuNDgtMS43NywwLjE5LTIuNDFsMCwwICAgICBjMC42NC0wLjY4LDEuODMtMC41MiwyLjUxLDAuMTZMNy4zMiw1NC43OHoiLz4mI3hhOwkJPC9nPiYjeGE7CQk8ZyBpZD0ic2hhcGUzMjkwLTc0IiB0cmFuc2Zvcm09InRyYW5zbGF0ZSg0My44NTA1LC0xMy44ODQxKSI+JiN4YTsJCQk8dGl0bGUgaWQ9InRpdGxlMzY2ODMiPlNoZWV0LjMyOTA8L3RpdGxlPiYjeGE7CQkJPHBhdGggaWQ9InBhdGgzNjY4NSIgaW5rc2NhcGU6Y29ubmVjdG9yLWN1cnZhdHVyZT0iMCIgc3R5bGU9ImZpbGw6I0U1QjVBQzsiIGQ9Ik0wLjQ2LDU2Ljc5YzAsMCwxLjMyLTEuNDUtMC4xNi0yLjg5ICAgICBjLTEuNTEtMS40NSwzLjEyLDEuNDQsMy4xMiwxLjQ0Yy0xLjE2LDIuMjUtMS4xNiwyLjI1LTEuMTYsMi4yNUwwLjQ2LDU2Ljc5eiIvPiYjeGE7CQk8L2c+JiN4YTsJCTxnIGlkPSJzaGFwZTMyOTEtNzYiIHRyYW5zZm9ybT0idHJhbnNsYXRlKDM3LjUwNjIsLTE0LjYwMzMpIj4mI3hhOwkJCTx0aXRsZSBpZD0idGl0bGUzNjY4OCI+U2hlZXQuMzI5MTwvdGl0bGU+JiN4YTsJCQk8cGF0aCBpZD0icGF0aDM2NjkwIiBpbmtzY2FwZTpjb25uZWN0b3ItY3VydmF0dXJlPSIwIiBzdHlsZT0iZmlsbDojRTVCNUFDOyIgZD0iTTAuOCw1Mi44NUMwLDU0LjM5LDAsNTQuMzksMCw1NC4zOSAgICAgYzEuNDUsMC44NCwxLjQ1LDAuODQsMS40NSwwLjg0YzQuMjcsMi4yNSw0LjI3LDIuMjUsNC4yNywyLjI1YzAuNzcsMC4zMiwxLjczLDAsMi4yMS0wLjg3YzAuMjktMC42OCwwLTEuNy0wLjgtMi4yMiAgICAgYy00LjI3LTIuMjUtNC4yNy0yLjI1LTQuMjctMi4yNUMyLjA2LDUxLjYzLDEuMTIsNTEuOTgsMC44LDUyLjg1eiIvPiYjeGE7CQk8L2c+JiN4YTsJCTxnIGlkPSJzaGFwZTMyOTItNzgiIHRyYW5zZm9ybT0idHJhbnNsYXRlKDM3LjUwNjIsLTE2LjQ1NTMpIj4mI3hhOwkJCTx0aXRsZSBpZD0idGl0bGUzNjY5MyI+U2hlZXQuMzI5MjwvdGl0bGU+JiN4YTsJCQk8cGF0aCBpZD0icGF0aDM2Njk1IiBpbmtzY2FwZTpjb25uZWN0b3ItY3VydmF0dXJlPSIwIiBzdHlsZT0iZmlsbDojRjJEM0NDOyIgZD0iTTEuOTYsNTYuMjhjLTEuNDUtMC43NC0xLjQ1LTAuNzQtMS40NS0wLjc0ICAgICBDMCw1Ni4yOCwwLDU2LjI4LDAsNTYuMjhjMS40OCwwLjczLDEuNDgsMC43MywxLjQ4LDAuNzNjMS42LDAuNTgsMS42LDAuNTgsMS42LDAuNThDMi45Miw1Ny4wMSwyLjYsNTYuNTcsMS45Niw1Ni4yOHoiLz4mI3hhOwkJPC9nPiYjeGE7CQk8ZyBpZD0ic2hhcGUzMjkzLTgwIiB0cmFuc2Zvcm09InRyYW5zbGF0ZSg0MC41ODg5LC0xNi40NTUzKSI+JiN4YTsJCQk8dGl0bGUgaWQ9InRpdGxlMzY2OTgiPlNoZWV0LjMyOTM8L3RpdGxlPiYjeGE7CQkJPHBhdGggaWQ9InBhdGgzNjcwMCIgaW5rc2NhcGU6Y29ubmVjdG9yLWN1cnZhdHVyZT0iMCIgc3R5bGU9ImZpbGw6I0NDODY3RjsiIGQ9Ik0xLjkzLDU0Ljk5YzIuMTgsMi42LDIuMTgsMi42LDIuMTgsMi42ICAgICBzLTMuNjYsMC00LjExLTMuNkMxLjE5LDU0LjY3LDEuOTMsNTQuOTksMS45Myw1NC45OXoiLz4mI3hhOwkJPC9nPiYjeGE7CQk8ZyBpZD0ic2hhcGUzMjk0LTgyIiB0cmFuc2Zvcm09InRyYW5zbGF0ZSg1Mi40MDU5KSI+JiN4YTsJCQk8dGl0bGUgaWQ9InRpdGxlMzY3MDMiPlNoZWV0LjMyOTQ8L3RpdGxlPiYjeGE7CQkJPHBhdGggaWQ9InBhdGgzNjcwNSIgaW5rc2NhcGU6Y29ubmVjdG9yLWN1cnZhdHVyZT0iMCIgc3R5bGU9ImZpbGw6I0U1QjVBQzsiIGQ9Ik05LjM4LDQxLjE0bDE1LjI4LDExLjkyTDguMTksNTcuNTlMMCw0OC43OSAgICAgTDkuMzgsNDEuMTR6Ii8+JiN4YTsJCTwvZz4mI3hhOwk8L2c+JiN4YTs8L2c+JiN4YTs8L3N2Zz4=;noLabel=0;labelBorderColor=none;textShadow=0;" vertex="1" parent="1">
          <mxGeometry x="173.5" y="462.5" width="77" height="58" as="geometry" />
        </mxCell>
        <mxCell id="HoT-Beroih_YoZNH5ODc-5" value="Input [pdf alone]" style="text;html=1;align=center;verticalAlign=middle;resizable=0;points=[];autosize=1;strokeColor=none;fillColor=none;" vertex="1" parent="1">
          <mxGeometry x="146" y="517" width="110" height="30" as="geometry" />
        </mxCell>
        <mxCell id="HoT-Beroih_YoZNH5ODc-25" style="edgeStyle=orthogonalEdgeStyle;rounded=0;orthogonalLoop=1;jettySize=auto;html=1;entryX=0;entryY=0.5;entryDx=0;entryDy=0;" edge="1" parent="1" source="HoT-Beroih_YoZNH5ODc-6" target="HoT-Beroih_YoZNH5ODc-13">
          <mxGeometry relative="1" as="geometry" />
        </mxCell>
        <mxCell id="HoT-Beroih_YoZNH5ODc-6" value="" style="rounded=0;whiteSpace=wrap;html=1;rotation=90;" vertex="1" parent="1">
          <mxGeometry x="338.79" y="342.97" width="281.56" height="156.13" as="geometry" />
        </mxCell>
        <mxCell id="HoT-Beroih_YoZNH5ODc-7" value="ContentProcessing Layer" style="text;html=1;align=center;verticalAlign=middle;resizable=0;points=[];autosize=1;strokeColor=none;fillColor=none;" vertex="1" parent="1">
          <mxGeometry x="397" y="557" width="160" height="30" as="geometry" />
        </mxCell>
        <mxCell id="HoT-Beroih_YoZNH5ODc-11" value="" style="edgeStyle=orthogonalEdgeStyle;rounded=0;orthogonalLoop=1;jettySize=auto;html=1;" edge="1" parent="1" source="HoT-Beroih_YoZNH5ODc-8" target="HoT-Beroih_YoZNH5ODc-10">
          <mxGeometry relative="1" as="geometry" />
        </mxCell>
        <mxCell id="HoT-Beroih_YoZNH5ODc-8" value="" style="dashed=0;outlineConnect=0;html=1;align=center;labelPosition=center;verticalLabelPosition=bottom;verticalAlign=top;shape=mxgraph.webicons.adobe_pdf;fillColor=#F40C0C;gradientColor=#610603" vertex="1" parent="1">
          <mxGeometry x="441.5" y="299" width="73" height="69.37" as="geometry" />
        </mxCell>
        <mxCell id="HoT-Beroih_YoZNH5ODc-10" value="Read PDF content and write it as text file" style="whiteSpace=wrap;html=1;verticalAlign=top;fillColor=#F40C0C;dashed=0;gradientColor=#610603;" vertex="1" parent="1">
          <mxGeometry x="418" y="462.5" width="120" height="60" as="geometry" />
        </mxCell>
        <mxCell id="HoT-Beroih_YoZNH5ODc-23" style="edgeStyle=orthogonalEdgeStyle;rounded=0;orthogonalLoop=1;jettySize=auto;html=1;entryX=0;entryY=0.5;entryDx=0;entryDy=0;" edge="1" parent="1" source="HoT-Beroih_YoZNH5ODc-13" target="HoT-Beroih_YoZNH5ODc-18">
          <mxGeometry relative="1" as="geometry" />
        </mxCell>
        <mxCell id="HoT-Beroih_YoZNH5ODc-13" value="" style="rounded=0;whiteSpace=wrap;html=1;" vertex="1" parent="1">
          <mxGeometry x="680" y="281" width="160" height="280" as="geometry" />
        </mxCell>
        <mxCell id="HoT-Beroih_YoZNH5ODc-14" value="SpeechProcessing Layer" style="text;html=1;align=center;verticalAlign=middle;resizable=0;points=[];autosize=1;strokeColor=none;fillColor=none;" vertex="1" parent="1">
          <mxGeometry x="683" y="557" width="160" height="30" as="geometry" />
        </mxCell>
        <mxCell id="HoT-Beroih_YoZNH5ODc-17" value="" style="edgeStyle=orthogonalEdgeStyle;rounded=0;orthogonalLoop=1;jettySize=auto;html=1;" edge="1" parent="1" source="HoT-Beroih_YoZNH5ODc-49" target="HoT-Beroih_YoZNH5ODc-16">
          <mxGeometry relative="1" as="geometry" />
        </mxCell>
        <mxCell id="HoT-Beroih_YoZNH5ODc-15" value="" style="shape=image;verticalLabelPosition=bottom;labelBackgroundColor=#ffffff;verticalAlign=top;aspect=fixed;imageAspect=0;image=data:image/svg+xml,PHN2ZyB4bWxuczpjYz0iaHR0cDovL2NyZWF0aXZlY29tbW9ucy5vcmcvbnMjIiB4bWxuczpkYz0iaHR0cDovL3B1cmwub3JnL2RjL2VsZW1lbnRzLzEuMS8iIHhtbG5zOmlua3NjYXBlPSJodHRwOi8vd3d3Lmlua3NjYXBlLm9yZy9uYW1lc3BhY2VzL2lua3NjYXBlIiB4bWxuczpyZGY9Imh0dHA6Ly93d3cudzMub3JnLzE5OTkvMDIvMjItcmRmLXN5bnRheC1ucyMiIHhtbG5zOnNvZGlwb2RpPSJodHRwOi8vc29kaXBvZGkuc291cmNlZm9yZ2UubmV0L0RURC9zb2RpcG9kaS0wLmR0ZCIgeG1sbnM6c3ZnPSJodHRwOi8vd3d3LnczLm9yZy8yMDAwL3N2ZyIgeG1sbnM9Imh0dHA6Ly93d3cudzMub3JnLzIwMDAvc3ZnIiB4bWxuczp4bGluaz0iaHR0cDovL3d3dy53My5vcmcvMTk5OS94bGluayIgdmVyc2lvbj0iMS4xIiBpZD0ic3ZnMTM1NSIgaW5rc2NhcGU6dmVyc2lvbj0iMC45Mi4zICgyNDA1NTQ2LCAyMDE4LTAzLTExKSIgc29kaXBvZGk6ZG9jbmFtZT0idHh0X2ZpbGUuc3ZnIiB4PSIwcHgiIHk9IjBweCIgdmlld0JveD0iMCAwIDI3Ljk4IDM2LjQzIiBzdHlsZT0iZW5hYmxlLWJhY2tncm91bmQ6bmV3IDAgMCAyNy45OCAzNi40MzsiIHhtbDpzcGFjZT0icHJlc2VydmUiPiYjeGE7PHNvZGlwb2RpOm5hbWVkdmlldyBib3JkZXJjb2xvcj0iIzY2NjY2NiIgYm9yZGVyb3BhY2l0eT0iMSIgZml0LW1hcmdpbi1ib3R0b209IjAiIGZpdC1tYXJnaW4tbGVmdD0iMCIgZml0LW1hcmdpbi1yaWdodD0iMCIgZml0LW1hcmdpbi10b3A9IjAiIGdyaWR0b2xlcmFuY2U9IjEwIiBndWlkZXRvbGVyYW5jZT0iMTAiIGlkPSJuYW1lZHZpZXcxMzU3IiBpbmtzY2FwZTpjdXJyZW50LWxheWVyPSJzdmcxMzU1IiBpbmtzY2FwZTpjeD0iMjMuMjc4NzU4IiBpbmtzY2FwZTpjeT0iMTQuNzI0MjU1IiBpbmtzY2FwZTpwYWdlb3BhY2l0eT0iMCIgaW5rc2NhcGU6cGFnZXNoYWRvdz0iMiIgaW5rc2NhcGU6d2luZG93LWhlaWdodD0iMTAxNyIgaW5rc2NhcGU6d2luZG93LW1heGltaXplZD0iMSIgaW5rc2NhcGU6d2luZG93LXdpZHRoPSIxOTIwIiBpbmtzY2FwZTp3aW5kb3cteD0iLTgiIGlua3NjYXBlOndpbmRvdy15PSItOCIgaW5rc2NhcGU6em9vbT0iNy44ODc1ODY3IiBvYmplY3R0b2xlcmFuY2U9IjEwIiBwYWdlY29sb3I9IiNmZmZmZmYiIHNob3dncmlkPSJmYWxzZSI+JiN4YTsJPC9zb2RpcG9kaTpuYW1lZHZpZXc+JiN4YTs8ZyBpZD0iZzEzNTMiIHRyYW5zZm9ybT0idHJhbnNsYXRlKC0xMC45Mjg2LC0xMC45MzE0NDUpIj4mI3hhOwk8dGl0bGUgaWQ9InRpdGxlMTI1MiI+UGFnZS0xPC90aXRsZT4mI3hhOwk8ZyBpZD0iZ3JvdXA0MTQ5LTEiIHRyYW5zZm9ybT0idHJhbnNsYXRlKDEwLjkyODYsLTEwLjkyODYpIj4mI3hhOwkJPHRpdGxlIGlkPSJ0aXRsZTEyNTQiPlRYVCBGaWxlPC90aXRsZT4mI3hhOwkJPGcgaWQ9Imdyb3VwNDE1MC0yIj4mI3hhOwkJCTx0aXRsZSBpZD0idGl0bGUxMjU2Ij5TaGVldC40MTUwPC90aXRsZT4mI3hhOwkJCTxnIGlkPSJzaGFwZTQxNTEtMyI+JiN4YTsJCQkJPHRpdGxlIGlkPSJ0aXRsZTEyNTgiPlNoZWV0LjQxNTE8L3RpdGxlPiYjeGE7CQkJCTxwYXRoIGlkPSJwYXRoMTI2MCIgaW5rc2NhcGU6Y29ubmVjdG9yLWN1cnZhdHVyZT0iMCIgc3R5bGU9ImZpbGw6I0U5RTlFMDsiIGQ9Ik0xOS44NCwyMS44NkgwLjk1QzAuNDMsMjEuODYsMCwyMi4yOCwwLDIzLjExICAgICAgdjM0LjUzYzAsMC4yMywwLjQzLDAuNjUsMC45NSwwLjY1aDI2LjA4YzAuNTIsMCwwLjk1LTAuNDIsMC45NS0wLjY1VjMwLjNjMC0wLjQ1LTAuMDYtMC42LTAuMTctMC43bC03LjU3LTcuNTggICAgICBDMjAuMTMsMjEuOTIsMTkuOTksMjEuODYsMTkuODQsMjEuODZ6Ii8+JiN4YTsJCQk8L2c+JiN4YTsJCQk8ZyBpZD0ic2hhcGU0MTUyLTUiIHRyYW5zZm9ybT0idHJhbnNsYXRlKDIwLjE3MDIsLTI4LjYyODcpIj4mI3hhOwkJCQk8dGl0bGUgaWQ9InRpdGxlMTI2MyI+U2hlZXQuNDE1MjwvdGl0bGU+JiN4YTsJCQkJPHBhdGggaWQ9InBhdGgxMjY1IiBpbmtzY2FwZTpjb25uZWN0b3ItY3VydmF0dXJlPSIwIiBzdHlsZT0iZmlsbDojRDlEN0NBOyIgZD0iTTAsNTAuNTh2Ny43MWg3LjcxTDAsNTAuNTh6Ii8+JiN4YTsJCQk8L2c+JiN4YTsJCQk8ZyBpZD0ic2hhcGU0MTUzLTciPiYjeGE7CQkJCTx0aXRsZSBpZD0idGl0bGUxMjY4Ij5TaGVldC40MTUzPC90aXRsZT4mI3hhOwkJCQk8cGF0aCBpZD0icGF0aDEyNzAiIGlua3NjYXBlOmNvbm5lY3Rvci1jdXJ2YXR1cmU9IjAiIHN0eWxlPSJmaWxsOiM5NUE1QTU7IiBkPSJNMjcuMDMsNTguMjlIMC45NUMwLjQzLDU4LjI5LDAsNTcuODcsMCw1Ny4zNCAgICAgIFY0Ny4yM2gyNy45OHYxMC4xMUMyNy45OCw1Ny44NywyNy41NSw1OC4yOSwyNy4wMyw1OC4yOXoiLz4mI3hhOwkJCTwvZz4mI3hhOwkJCTxnIGlkPSJncm91cDQxNTQtOSIgdHJhbnNmb3JtPSJ0cmFuc2xhdGUoNS4wMDgwNywtMS45NTE5NikiPiYjeGE7CQkJCTx0aXRsZSBpZD0idGl0bGUxMjczIj5TaGVldC40MTU0PC90aXRsZT4mI3hhOwkJCQk8ZyBpZD0ic2hhcGU0MTU1LTEwIj4mI3hhOwkJCQkJPHRpdGxlIGlkPSJ0aXRsZTEyNzUiPlNoZWV0LjQxNTU8L3RpdGxlPiYjeGE7CQkJCQk8cGF0aCBpZD0icGF0aDEyNzciIGlua3NjYXBlOmNvbm5lY3Rvci1jdXJ2YXR1cmU9IjAiIHN0eWxlPSJmaWxsOiNGRkZGRkY7IiBkPSJNNC45OSw1MS43NHYwLjczSDMuMDN2NS44MkgxLjk2di01LjgySDB2LTAuNzMgICAgICAgSDQuOTl6Ii8+JiN4YTsJCQkJPC9nPiYjeGE7CQkJCTxnIGlkPSJzaGFwZTQxNTYtMTIiIHRyYW5zZm9ybT0idHJhbnNsYXRlKDYuMTAzMTEpIj4mI3hhOwkJCQkJPHRpdGxlIGlkPSJ0aXRsZTEyODAiPlNoZWV0LjQxNTY8L3RpdGxlPiYjeGE7CQkJCQk8cGF0aCBpZD0icGF0aDEyODIiIGlua3NjYXBlOmNvbm5lY3Rvci1jdXJ2YXR1cmU9IjAiIHN0eWxlPSJmaWxsOiNGRkZGRkY7IiBkPSJNMy4xNyw1NS4xMWwxLjY2LDMuMThIMy41OWwtMS4wNC0yLjQ3SDIuNDYgICAgICAgbC0xLjEyLDIuNDdIMC4xMWwxLjY2LTMuMThMMCw1MS43NGgxLjIybDEuMTUsMi42N2gwLjA5bDEuMjYtMi42N2gxLjIyTDMuMTcsNTUuMTF6Ii8+JiN4YTsJCQkJPC9nPiYjeGE7CQkJCTxnIGlkPSJzaGFwZTQxNTctMTQiIHRyYW5zZm9ybT0idHJhbnNsYXRlKDEyLjE0MjUpIj4mI3hhOwkJCQkJPHRpdGxlIGlkPSJ0aXRsZTEyODUiPlNoZWV0LjQxNTc8L3RpdGxlPiYjeGE7CQkJCQk8cGF0aCBpZD0icGF0aDEyODciIGlua3NjYXBlOmNvbm5lY3Rvci1jdXJ2YXR1cmU9IjAiIHN0eWxlPSJmaWxsOiNGRkZGRkY7IiBkPSJNNC45OSw1MS43NHYwLjczSDMuMDN2NS44MkgxLjk2di01LjgySDB2LTAuNzMgICAgICAgSDQuOTl6Ii8+JiN4YTsJCQkJPC9nPiYjeGE7CQkJPC9nPiYjeGE7CQkJPGcgaWQ9InNoYXBlNDE1OC0xNiIgdHJhbnNmb3JtPSJ0cmFuc2xhdGUoMy4yNTMyNiwtMjcuOTc4KSI+JiN4YTsJCQkJPHRpdGxlIGlkPSJ0aXRsZTEyOTEiPlNoZWV0LjQxNTg8L3RpdGxlPiYjeGE7CQkJCTxwYXRoIGlkPSJwYXRoMTI5MyIgaW5rc2NhcGU6Y29ubmVjdG9yLWN1cnZhdHVyZT0iMCIgc3R5bGU9ImZpbGw6I0M4QkRCODsiIGQ9Ik00LjU1LDU4LjI5aC0zLjlDMC4yOSw1OC4yOSwwLDU4LDAsNTcuNjQgICAgICBzMC4yOS0wLjY1LDAuNjUtMC42NWgzLjljMC4zNiwwLDAuNjYsMC4yOSwwLjY2LDAuNjVTNC45MSw1OC4yOSw0LjU1LDU4LjI5eiIvPiYjeGE7CQkJPC9nPiYjeGE7CQkJPGcgaWQ9InNoYXBlNDE1OS0xOCIgdHJhbnNmb3JtPSJ0cmFuc2xhdGUoMy4yNTMyNiwtMjQuNzI0OCkiPiYjeGE7CQkJCTx0aXRsZSBpZD0idGl0bGUxMjk2Ij5TaGVldC40MTU5PC90aXRsZT4mI3hhOwkJCQk8cGF0aCBpZD0icGF0aDEyOTgiIGlua3NjYXBlOmNvbm5lY3Rvci1jdXJ2YXR1cmU9IjAiIHN0eWxlPSJmaWxsOiNDOEJEQjg7IiBkPSJNNi41MSw1OC4yOUgwLjY1QzAuMjksNTguMjksMCw1OCwwLDU3LjY0ICAgICAgczAuMjktMC42NSwwLjY1LTAuNjVoNS44NmMwLjM2LDAsMC42NSwwLjI5LDAuNjUsMC42NVM2Ljg3LDU4LjI5LDYuNTEsNTguMjl6Ii8+JiN4YTsJCQk8L2c+JiN4YTsJCQk8ZyBpZD0ic2hhcGU0MTYwLTIwIiB0cmFuc2Zvcm09InRyYW5zbGF0ZSgxMS43MTE3LC0yNC43MjQ4KSI+JiN4YTsJCQkJPHRpdGxlIGlkPSJ0aXRsZTEzMDEiPlNoZWV0LjQxNjA8L3RpdGxlPiYjeGE7CQkJCTxwYXRoIGlkPSJwYXRoMTMwMyIgaW5rc2NhcGU6Y29ubmVjdG9yLWN1cnZhdHVyZT0iMCIgc3R5bGU9ImZpbGw6I0M4QkRCODsiIGQ9Ik0wLjY1LDU4LjI5Yy0wLjE3LDAtMC4zNC0wLjA3LTAuNDYtMC4xOSAgICAgIEMwLjA3LDU3Ljk4LDAsNTcuODIsMCw1Ny42NGMwLTAuMTcsMC4wNy0wLjM0LDAuMi0wLjQ2YzAuMjMtMC4yNCwwLjY3LTAuMjQsMC45MSwwYzAuMTIsMC4xMiwwLjE5LDAuMjksMC4xOSwwLjQ2ICAgICAgcy0wLjA3LDAuMzQtMC4xOSwwLjQ2UzAuODIsNTguMjksMC42NSw1OC4yOXoiLz4mI3hhOwkJCTwvZz4mI3hhOwkJCTxnIGlkPSJzaGFwZTQxNjEtMjIiIHRyYW5zZm9ybT0idHJhbnNsYXRlKDE0LjMxNDMsLTI0LjcyNDgpIj4mI3hhOwkJCQk8dGl0bGUgaWQ9InRpdGxlMTMwNiI+U2hlZXQuNDE2MTwvdGl0bGU+JiN4YTsJCQkJPHBhdGggaWQ9InBhdGgxMzA4IiBpbmtzY2FwZTpjb25uZWN0b3ItY3VydmF0dXJlPSIwIiBzdHlsZT0iZmlsbDojQzhCREI4OyIgZD0iTTUuODYsNTguMjlIMC42NUMwLjI5LDU4LjI5LDAsNTgsMCw1Ny42NCAgICAgIHMwLjI5LTAuNjUsMC42NS0wLjY1aDUuMjFjMC4zNiwwLDAuNjUsMC4yOSwwLjY1LDAuNjVTNi4yMiw1OC4yOSw1Ljg2LDU4LjI5eiIvPiYjeGE7CQkJPC9nPiYjeGE7CQkJPGcgaWQ9InNoYXBlNDE2Mi0yNCIgdHJhbnNmb3JtPSJ0cmFuc2xhdGUoMy4yNTMyNiwtMTQuOTY1KSI+JiN4YTsJCQkJPHRpdGxlIGlkPSJ0aXRsZTEzMTEiPlNoZWV0LjQxNjI8L3RpdGxlPiYjeGE7CQkJCTxwYXRoIGlkPSJwYXRoMTMxMyIgaW5rc2NhcGU6Y29ubmVjdG9yLWN1cnZhdHVyZT0iMCIgc3R5bGU9ImZpbGw6I0M4QkRCODsiIGQ9Ik0wLjY1LDU4LjI5Yy0wLjE3LDAtMC4zNC0wLjA3LTAuNDYtMC4xOSAgICAgIEMwLjA3LDU3Ljk4LDAsNTcuODEsMCw1Ny42NGMwLTAuMTcsMC4wNy0wLjM0LDAuMTktMC40NmMwLjI0LTAuMjQsMC42OC0wLjI0LDAuOTIsMC4wMWMwLjEyLDAuMTEsMC4xOSwwLjI4LDAuMTksMC40NSAgICAgIGMwLDAuMTctMC4wNywwLjM0LTAuMTksMC40NlMwLjgyLDU4LjI5LDAuNjUsNTguMjl6Ii8+JiN4YTsJCQk8L2c+JiN4YTsJCQk8ZyBpZD0ic2hhcGU0MTYzLTI2IiB0cmFuc2Zvcm09InRyYW5zbGF0ZSg1Ljg1NTg3LC0xNC45NjUpIj4mI3hhOwkJCQk8dGl0bGUgaWQ9InRpdGxlMTMxNiI+U2hlZXQuNDE2MzwvdGl0bGU+JiN4YTsJCQkJPHBhdGggaWQ9InBhdGgxMzE4IiBpbmtzY2FwZTpjb25uZWN0b3ItY3VydmF0dXJlPSIwIiBzdHlsZT0iZmlsbDojQzhCREI4OyIgZD0iTTUuODYsNTguMjlIMC42NUMwLjI5LDU4LjI5LDAsNTgsMCw1Ny42NCAgICAgIHMwLjI5LTAuNjUsMC42NS0wLjY1aDUuMjFjMC4zNiwwLDAuNjUsMC4yOSwwLjY1LDAuNjVTNi4yMiw1OC4yOSw1Ljg2LDU4LjI5eiIvPiYjeGE7CQkJPC9nPiYjeGE7CQkJPGcgaWQ9InNoYXBlNDE2NC0yOCIgdHJhbnNmb3JtPSJ0cmFuc2xhdGUoMjIuMTIyMiwtMjQuNzI0OCkiPiYjeGE7CQkJCTx0aXRsZSBpZD0idGl0bGUxMzIxIj5TaGVldC40MTY0PC90aXRsZT4mI3hhOwkJCQk8cGF0aCBpZD0icGF0aDEzMjMiIGlua3NjYXBlOmNvbm5lY3Rvci1jdXJ2YXR1cmU9IjAiIHN0eWxlPSJmaWxsOiNDOEJEQjg7IiBkPSJNMS45NSw1OC4yOWgtMS4zQzAuMjksNTguMjksMCw1OCwwLDU3LjY0ICAgICAgczAuMjktMC42NSwwLjY1LTAuNjVoMS4zYzAuMzYsMCwwLjY1LDAuMjksMC42NSwwLjY1UzIuMzEsNTguMjksMS45NSw1OC4yOXoiLz4mI3hhOwkJCTwvZz4mI3hhOwkJCTxnIGlkPSJzaGFwZTQxNjUtMzAiIHRyYW5zZm9ybT0idHJhbnNsYXRlKDMuMjUzMjYsLTIxLjQ3MTUpIj4mI3hhOwkJCQk8dGl0bGUgaWQ9InRpdGxlMTMyNiI+U2hlZXQuNDE2NTwvdGl0bGU+JiN4YTsJCQkJPHBhdGggaWQ9InBhdGgxMzI4IiBpbmtzY2FwZTpjb25uZWN0b3ItY3VydmF0dXJlPSIwIiBzdHlsZT0iZmlsbDojQzhCREI4OyIgZD0iTTE0Ljk2LDU4LjI5SDAuNjVDMC4yOSw1OC4yOSwwLDU4LDAsNTcuNjQgICAgICBzMC4yOS0wLjY1LDAuNjUtMC42NWgxNC4zMWMwLjM2LDAsMC42NiwwLjI5LDAuNjYsMC42NVMxNS4zMiw1OC4yOSwxNC45Niw1OC4yOXoiLz4mI3hhOwkJCTwvZz4mI3hhOwkJCTxnIGlkPSJzaGFwZTQxNjYtMzIiIHRyYW5zZm9ybT0idHJhbnNsYXRlKDE5LjUxOTYsLTIxLjQ3MTUpIj4mI3hhOwkJCQk8dGl0bGUgaWQ9InRpdGxlMTMzMSI+U2hlZXQuNDE2NjwvdGl0bGU+JiN4YTsJCQkJPHBhdGggaWQ9InBhdGgxMzMzIiBpbmtzY2FwZTpjb25uZWN0b3ItY3VydmF0dXJlPSIwIiBzdHlsZT0iZmlsbDojQzhCREI4OyIgZD0iTTQuNTUsNTguMjloLTMuOUMwLjI5LDU4LjI5LDAsNTgsMCw1Ny42NCAgICAgIHMwLjI5LTAuNjUsMC42NS0wLjY1aDMuOWMwLjM2LDAsMC42NiwwLjI5LDAuNjYsMC42NVM0LjkxLDU4LjI5LDQuNTUsNTguMjl6Ii8+JiN4YTsJCQk8L2c+JiN4YTsJCQk8ZyBpZD0ic2hhcGU0MTY3LTM0IiB0cmFuc2Zvcm09InRyYW5zbGF0ZSgzLjI1MzI2LC0xOC4yMTgyKSI+JiN4YTsJCQkJPHRpdGxlIGlkPSJ0aXRsZTEzMzYiPlNoZWV0LjQxNjc8L3RpdGxlPiYjeGE7CQkJCTxwYXRoIGlkPSJwYXRoMTMzOCIgaW5rc2NhcGU6Y29ubmVjdG9yLWN1cnZhdHVyZT0iMCIgc3R5bGU9ImZpbGw6I0M4QkRCODsiIGQ9Ik0zLjI1LDU4LjI5aC0yLjZDMC4yOSw1OC4yOSwwLDU4LDAsNTcuNjQgICAgICBzMC4yOS0wLjY1LDAuNjUtMC42NWgyLjZjMC4zNiwwLDAuNjUsMC4yOSwwLjY1LDAuNjVTMy42MSw1OC4yOSwzLjI1LDU4LjI5eiIvPiYjeGE7CQkJPC9nPiYjeGE7CQkJPGcgaWQ9InNoYXBlNDE2OC0zNiIgdHJhbnNmb3JtPSJ0cmFuc2xhdGUoOC40NTg0NywtMTguMjE4MikiPiYjeGE7CQkJCTx0aXRsZSBpZD0idGl0bGUxMzQxIj5TaGVldC40MTY4PC90aXRsZT4mI3hhOwkJCQk8cGF0aCBpZD0icGF0aDEzNDMiIGlua3NjYXBlOmNvbm5lY3Rvci1jdXJ2YXR1cmU9IjAiIHN0eWxlPSJmaWxsOiNDOEJEQjg7IiBkPSJNNy4xNiw1OC4yOUgwLjY1QzAuMjksNTguMjksMCw1OCwwLDU3LjY0ICAgICAgczAuMjktMC42NSwwLjY1LTAuNjVoNi41MWMwLjM2LDAsMC42NSwwLjI5LDAuNjUsMC42NVM3LjUyLDU4LjI5LDcuMTYsNTguMjl6Ii8+JiN4YTsJCQk8L2c+JiN4YTsJCQk8ZyBpZD0ic2hhcGU0MTY5LTM4IiB0cmFuc2Zvcm09InRyYW5zbGF0ZSgxNy41Njc2LC0xOC4yMTgyKSI+JiN4YTsJCQkJPHRpdGxlIGlkPSJ0aXRsZTEzNDYiPlNoZWV0LjQxNjk8L3RpdGxlPiYjeGE7CQkJCTxwYXRoIGlkPSJwYXRoMTM0OCIgaW5rc2NhcGU6Y29ubmVjdG9yLWN1cnZhdHVyZT0iMCIgc3R5bGU9ImZpbGw6I0M4QkRCODsiIGQ9Ik02LjUxLDU4LjI5SDAuNjVDMC4yOSw1OC4yOSwwLDU4LDAsNTcuNjQgICAgICBzMC4yOS0wLjY1LDAuNjUtMC42NWg1Ljg2YzAuMzYsMCwwLjY1LDAuMjksMC42NSwwLjY1UzYuODcsNTguMjksNi41MSw1OC4yOXoiLz4mI3hhOwkJCTwvZz4mI3hhOwkJPC9nPiYjeGE7CTwvZz4mI3hhOzwvZz4mI3hhOzwvc3ZnPg==;" vertex="1" parent="1">
          <mxGeometry x="735" y="302.83" width="48" height="61.71" as="geometry" />
        </mxCell>
        <mxCell id="HoT-Beroih_YoZNH5ODc-16" value="Text file is read, and audio file is generated" style="whiteSpace=wrap;html=1;verticalAlign=top;labelBackgroundColor=#ffffff;fillColor=#fff2cc;strokeColor=#d6b656;gradientColor=none;" vertex="1" parent="1">
          <mxGeometry x="699" y="457.005" width="120" height="60" as="geometry" />
        </mxCell>
        <mxCell id="HoT-Beroih_YoZNH5ODc-28" style="edgeStyle=orthogonalEdgeStyle;rounded=0;orthogonalLoop=1;jettySize=auto;html=1;entryX=0;entryY=0.5;entryDx=0;entryDy=0;" edge="1" parent="1" source="HoT-Beroih_YoZNH5ODc-18" target="HoT-Beroih_YoZNH5ODc-26">
          <mxGeometry relative="1" as="geometry" />
        </mxCell>
        <mxCell id="HoT-Beroih_YoZNH5ODc-18" value="" style="rounded=0;whiteSpace=wrap;html=1;" vertex="1" parent="1">
          <mxGeometry x="960" y="281" width="160" height="280" as="geometry" />
        </mxCell>
        <mxCell id="HoT-Beroih_YoZNH5ODc-19" value="AudioProcessing Layer" style="text;html=1;align=center;verticalAlign=middle;resizable=0;points=[];autosize=1;strokeColor=none;fillColor=none;" vertex="1" parent="1">
          <mxGeometry x="964" y="557" width="150" height="30" as="geometry" />
        </mxCell>
        <mxCell id="HoT-Beroih_YoZNH5ODc-22" value="" style="edgeStyle=orthogonalEdgeStyle;rounded=0;orthogonalLoop=1;jettySize=auto;html=1;" edge="1" parent="1" source="HoT-Beroih_YoZNH5ODc-20" target="HoT-Beroih_YoZNH5ODc-21">
          <mxGeometry relative="1" as="geometry" />
        </mxCell>
        <mxCell id="HoT-Beroih_YoZNH5ODc-20" value="" style="shadow=0;dashed=0;html=1;strokeColor=none;fillColor=#4495D1;labelPosition=center;verticalLabelPosition=bottom;verticalAlign=top;align=center;outlineConnect=0;shape=mxgraph.veeam.audio_file;" vertex="1" parent="1">
          <mxGeometry x="1016.1" y="303.83" width="47.8" height="59.8" as="geometry" />
        </mxCell>
        <mxCell id="HoT-Beroih_YoZNH5ODc-21" value="Audio file is processed, with speech-to-text and .srt (subtitle ) file is generated" style="whiteSpace=wrap;html=1;verticalAlign=top;fillColor=#4495D1;strokeColor=none;shadow=0;dashed=0;" vertex="1" parent="1">
          <mxGeometry x="980" y="443.53" width="120" height="87.47" as="geometry" />
        </mxCell>
        <mxCell id="HoT-Beroih_YoZNH5ODc-45" style="edgeStyle=orthogonalEdgeStyle;rounded=0;orthogonalLoop=1;jettySize=auto;html=1;" edge="1" parent="1" source="HoT-Beroih_YoZNH5ODc-26" target="HoT-Beroih_YoZNH5ODc-44">
          <mxGeometry relative="1" as="geometry" />
        </mxCell>
        <mxCell id="HoT-Beroih_YoZNH5ODc-26" value="" style="rounded=0;whiteSpace=wrap;html=1;" vertex="1" parent="1">
          <mxGeometry x="1240" y="281" width="160" height="280" as="geometry" />
        </mxCell>
        <mxCell id="HoT-Beroih_YoZNH5ODc-27" value="VideoProcessing Layer" style="text;html=1;align=center;verticalAlign=middle;resizable=0;points=[];autosize=1;strokeColor=none;fillColor=none;" vertex="1" parent="1">
          <mxGeometry x="1244" y="557" width="150" height="30" as="geometry" />
        </mxCell>
        <mxCell id="HoT-Beroih_YoZNH5ODc-39" value="" style="edgeStyle=orthogonalEdgeStyle;rounded=0;orthogonalLoop=1;jettySize=auto;html=1;" edge="1" parent="1" source="HoT-Beroih_YoZNH5ODc-30" target="HoT-Beroih_YoZNH5ODc-33">
          <mxGeometry relative="1" as="geometry" />
        </mxCell>
        <mxCell id="HoT-Beroih_YoZNH5ODc-30" value="SRT file" style="shape=image;html=1;verticalAlign=top;verticalLabelPosition=bottom;labelBackgroundColor=#ffffff;imageAspect=0;aspect=fixed;image=https://cdn3.iconfinder.com/data/icons/geosm-e-commerce/48/file-128.png" vertex="1" parent="1">
          <mxGeometry x="1244" y="295.31" width="68.32" height="68.32" as="geometry" />
        </mxCell>
        <mxCell id="HoT-Beroih_YoZNH5ODc-42" value="" style="edgeStyle=orthogonalEdgeStyle;rounded=0;orthogonalLoop=1;jettySize=auto;html=1;" edge="1" parent="1" source="HoT-Beroih_YoZNH5ODc-31" target="HoT-Beroih_YoZNH5ODc-33">
          <mxGeometry relative="1" as="geometry" />
        </mxCell>
        <mxCell id="HoT-Beroih_YoZNH5ODc-31" value="audio file&lt;div&gt;&lt;br&gt;&lt;/div&gt;" style="sketch=0;pointerEvents=1;shadow=0;dashed=0;html=1;strokeColor=none;fillColor=#005F4B;labelPosition=center;verticalLabelPosition=bottom;verticalAlign=top;align=center;outlineConnect=0;shape=mxgraph.veeam2.audio_file;" vertex="1" parent="1">
          <mxGeometry x="1340" y="310.15" width="40" height="47.17" as="geometry" />
        </mxCell>
        <mxCell id="HoT-Beroih_YoZNH5ODc-38" value="" style="edgeStyle=orthogonalEdgeStyle;rounded=0;orthogonalLoop=1;jettySize=auto;html=1;" edge="1" parent="1" source="HoT-Beroih_YoZNH5ODc-33">
          <mxGeometry relative="1" as="geometry">
            <mxPoint x="1319" y="501" as="targetPoint" />
          </mxGeometry>
        </mxCell>
        <mxCell id="HoT-Beroih_YoZNH5ODc-33" value="" style="shadow=0;dashed=0;html=1;strokeColor=none;fillColor=#4495D1;labelPosition=center;verticalLabelPosition=bottom;verticalAlign=top;align=center;outlineConnect=0;shape=mxgraph.veeam.video_file;" vertex="1" parent="1">
          <mxGeometry x="1300.6" y="404.6" width="36.8" height="50.8" as="geometry" />
        </mxCell>
        <mxCell id="HoT-Beroih_YoZNH5ODc-43" value="Video with combination from audio, srt and video from library, content is created" style="whiteSpace=wrap;html=1;verticalAlign=top;fillColor=#4495D1;strokeColor=none;shadow=0;dashed=0;" vertex="1" parent="1">
          <mxGeometry x="1258.5" y="471" width="121.5" height="80" as="geometry" />
        </mxCell>
        <mxCell id="HoT-Beroih_YoZNH5ODc-44" value="" style="fontColor=#0066CC;verticalAlign=top;verticalLabelPosition=bottom;labelPosition=center;align=center;html=1;outlineConnect=0;fillColor=#CCCCCC;strokeColor=#6881B3;gradientColor=none;gradientDirection=north;strokeWidth=2;shape=mxgraph.networks.video_projector_screen;" vertex="1" parent="1">
          <mxGeometry x="1520" y="371" width="80" height="100" as="geometry" />
        </mxCell>
        <mxCell id="HoT-Beroih_YoZNH5ODc-46" value="Output Content&amp;nbsp;" style="text;html=1;align=center;verticalAlign=middle;resizable=0;points=[];autosize=1;strokeColor=none;fillColor=none;" vertex="1" parent="1">
          <mxGeometry x="1505" y="487" width="110" height="30" as="geometry" />
        </mxCell>
        <mxCell id="HoT-Beroih_YoZNH5ODc-48" value="PDF file is read using &lt;b&gt;&lt;u&gt;PDFpig&lt;/u&gt;&lt;/b&gt; libray, and written as .txt file" style="shape=callout;whiteSpace=wrap;html=1;perimeter=calloutPerimeter;" vertex="1" parent="1">
          <mxGeometry x="384.57" y="140" width="190" height="120" as="geometry" />
        </mxCell>
        <mxCell id="HoT-Beroih_YoZNH5ODc-50" value="" style="edgeStyle=orthogonalEdgeStyle;rounded=0;orthogonalLoop=1;jettySize=auto;html=1;" edge="1" parent="1" source="HoT-Beroih_YoZNH5ODc-15" target="HoT-Beroih_YoZNH5ODc-49">
          <mxGeometry relative="1" as="geometry">
            <mxPoint x="759" y="365" as="sourcePoint" />
            <mxPoint x="759" y="457" as="targetPoint" />
          </mxGeometry>
        </mxCell>
        <mxCell id="HoT-Beroih_YoZNH5ODc-56" style="edgeStyle=orthogonalEdgeStyle;rounded=0;orthogonalLoop=1;jettySize=auto;html=1;" edge="1" parent="1" source="HoT-Beroih_YoZNH5ODc-49" target="HoT-Beroih_YoZNH5ODc-53">
          <mxGeometry relative="1" as="geometry" />
        </mxCell>
        <mxCell id="HoT-Beroih_YoZNH5ODc-49" value="Text-to-Speech" style="sketch=0;html=1;verticalAlign=top;labelPosition=center;verticalLabelPosition=bottom;align=center;spacingTop=-6;fontSize=11;fontStyle=1;fontColor=#999999;shape=image;aspect=fixed;imageAspect=0;image=data:image/svg+xml,PHN2ZyB4bWxucz0iaHR0cDovL3d3dy53My5vcmcvMjAwMC9zdmciIHhtbG5zOnY9Imh0dHBzOi8vdmVjdGEuaW8vbmFubyIgd2lkdGg9IjIwLjAwMDQ2MzQ4NTcxNzc3MyIgaGVpZ2h0PSIxNi42MzE1MTU1MDI5Mjk2ODgiIHZpZXdCb3g9IjAgMC4wMDAyNDE0MDk2NTI1MTcxNzcxNiAyMC4wMDA0NjM0ODU3MTc3NzMgMTYuNjMxNTE1NTAyOTI5Njg4Ij4mI3hhOwk8c3R5bGUgdHlwZT0idGV4dC9jc3MiPiYjeGE7CS5zdDB7ZmlsbDojNjY5ZGY2O30mI3hhOwkuc3Qxe2ZpbGw6IzQyODVmNDt9JiN4YTsJPC9zdHlsZT4mI3hhOwk8cGF0aCBjbGFzcz0ic3QwIiBkPSJNLjAxIDMuMzA2aDYuNjR2MS42N0guMDF6bS0uMDEgMTBoMCA5LjE3di0xLjY3SDB6bTAtNC4xN2g0LjE4SDEwbC0xLjY3LTEuNjZIMi41MSAweiIvPiYjeGE7CTxwYXRoIGNsYXNzPSJzdDEiIGQ9Ik0xMCA1LjM4NmEuNDIuNDIgMCAwIDEgLjQyLS4zNi40MS40MSAwIDAgMSAuNDEuMzZ2OS4xOGEyLjA5IDIuMDkgMCAwIDAgMi42MSAyIDIuMTYgMi4xNiAwIDAgMCAxLjU2LTIuMTFWMi4wNjZhLjQuNCAwIDAgMSAuMTktLjQuNDEuNDEgMCAwIDEgLjQ1IDAgLjQuNCAwIDAgMSAuMTkuNHY5LjE2YTIuMDcgMi4wNyAwIDAgMCAuODEgMS42NCAyIDIgMCAwIDAgMS44LjM3IDIuMTYgMi4xNiAwIDAgMCAxLjU2LTIuMTJ2LTIuOGgtMS42N3YyLjkyYS40LjQgMCAwIDEtLjE5LjQuNDEuNDEgMCAwIDEtLjQ1IDAgLjQuNCAwIDAgMS0uMTktLjR2LTkuMTdhMi4wOSAyLjA5IDAgMCAwLTIuNjEtMiAyLjE2IDIuMTYgMCAwIDAtMS41NiAyLjEzdjEyLjM3YS40LjQgMCAwIDEtLjE5LjQuNDEuNDEgMCAwIDEtLjQ1IDAgLjQuNCAwIDAgMS0uMTktLjR2LTkuMTdhMi4wNyAyLjA3IDAgMCAwLTQuMTEtLjM2IDIuNCAyLjQgMCAwIDAtLjA1LjQ2djJMMTAgOS4xMzZ6Ii8+JiN4YTs8L3N2Zz4=;" vertex="1" parent="1">
          <mxGeometry x="738" y="378" width="42" height="36" as="geometry" />
        </mxCell>
        <mxCell id="HoT-Beroih_YoZNH5ODc-51" value="Speech-to-Text" style="sketch=0;html=1;verticalAlign=top;labelPosition=center;verticalLabelPosition=bottom;align=center;spacingTop=-6;fontSize=11;fontStyle=1;fontColor=#999999;shape=image;aspect=fixed;imageAspect=0;image=data:image/svg+xml,PHN2ZyB4bWxucz0iaHR0cDovL3d3dy53My5vcmcvMjAwMC9zdmciIHhtbG5zOnY9Imh0dHBzOi8vdmVjdGEuaW8vbmFubyIgd2lkdGg9IjE4IiBoZWlnaHQ9IjIwIiB2aWV3Qm94PSIwIDAgMTggMjAiPiYjeGE7CTxzdHlsZSB0eXBlPSJ0ZXh0L2NzcyI+JiN4YTsJLnN0MHtmaWxsOiM0Mjg1ZjQ7fSYjeGE7CS5zdDF7ZmlsbDojNjY5ZGY2O30mI3hhOwk8L3N0eWxlPiYjeGE7CTxwYXRoIGNsYXNzPSJzdDAiIGQ9Ik04IDBoMnYyMEg4ek00IDZoMnY4SDR6bTggMGgydjhoLTJ6TTAgM2gydjE0SDB6bTE2IDBoMnYxNGgtMnoiLz4mI3hhOwk8cGF0aCBjbGFzcz0ic3QxIiBkPSJNOCAwaDJ2MTBIOHpNNCA2aDJ2NEg0em04IDBoMnY0aC0yek0wIDNoMnY3SDB6bTE2IDBoMnY3aC0yeiIvPiYjeGE7PC9zdmc+;" vertex="1" parent="1">
          <mxGeometry x="1021" y="373" width="38" height="42" as="geometry" />
        </mxCell>
        <mxCell id="HoT-Beroih_YoZNH5ODc-52" value="For video processing&lt;font face=&quot;JetBrains Mono, monospace&quot; color=&quot;#202020&quot;&gt;&lt;span style=&quot;font-size: 13.0667px; background-color: rgb(255, 255, 255);&quot;&gt;&amp;nbsp;&lt;/span&gt;&lt;/font&gt;&lt;span style=&quot;font-family: &amp;quot;JetBrains Mono&amp;quot;, monospace; font-size: 9.8pt; background-color: rgb(255, 255, 255); color: rgb(32, 32, 32);&quot;&gt;FFMpegCore &lt;/span&gt;&lt;span style=&quot;font-size: 9.8pt; background-color: rgb(255, 255, 255); color: rgb(32, 32, 32);&quot;&gt;library ( .NET wrapper for FFMpeg ) is used&lt;/span&gt;" style="shape=callout;whiteSpace=wrap;html=1;perimeter=calloutPerimeter;" vertex="1" parent="1">
          <mxGeometry x="1210" y="140" width="190" height="120" as="geometry" />
        </mxCell>
        <mxCell id="HoT-Beroih_YoZNH5ODc-53" value="" style="image;aspect=fixed;html=1;points=[];align=center;fontSize=12;image=img/lib/azure2/ai_machine_learning/Cognitive_Services.svg;" vertex="1" parent="1">
          <mxGeometry x="860" y="170" width="68" height="48" as="geometry" />
        </mxCell>
        <mxCell id="HoT-Beroih_YoZNH5ODc-57" style="edgeStyle=orthogonalEdgeStyle;rounded=0;orthogonalLoop=1;jettySize=auto;html=1;entryX=0.721;entryY=0.958;entryDx=0;entryDy=0;entryPerimeter=0;" edge="1" parent="1" source="HoT-Beroih_YoZNH5ODc-51" target="HoT-Beroih_YoZNH5ODc-53">
          <mxGeometry relative="1" as="geometry" />
        </mxCell>
        <mxCell id="HoT-Beroih_YoZNH5ODc-58" value="Azure Cognitive Services" style="text;html=1;align=center;verticalAlign=middle;resizable=0;points=[];autosize=1;strokeColor=none;fillColor=none;" vertex="1" parent="1">
          <mxGeometry x="820" y="140" width="160" height="30" as="geometry" />
        </mxCell>
      </root>
    </mxGraphModel>
  </diagram>
</mxfile>
